<mxfile host="app.diagrams.net" agent="Mozilla/5.0 (Windows NT 10.0; Win64; x64) AppleWebKit/537.36 (KHTML, like Gecko) Chrome/134.0.0.0 Safari/537.36" version="27.0.6">
  <diagram name="第 1 页" id="rYXHHF0snmjp__iC9q_4">
    <mxGraphModel dx="1442" dy="1374" grid="0" gridSize="10" guides="1" tooltips="1" connect="1" arrows="1" fold="1" page="0" pageScale="1" pageWidth="827" pageHeight="1169" math="1" shadow="0">
      <root>
        <mxCell id="0" />
        <mxCell id="1" parent="0" />
        <mxCell id="j9suDuCbf65Sm_-P19-l-246" value="" style="rounded=0;whiteSpace=wrap;html=1;fillColor=#F5F5F5;dashed=1;strokeWidth=2;" vertex="1" parent="1">
          <mxGeometry x="-101" y="-529" width="452" height="308" as="geometry" />
        </mxCell>
        <mxCell id="j9suDuCbf65Sm_-P19-l-245" value="" style="rounded=0;whiteSpace=wrap;html=1;fillColor=#F5F5F5;strokeColor=#6c8ebf;dashed=1;strokeWidth=2;" vertex="1" parent="1">
          <mxGeometry x="377" y="-530" width="1037" height="713" as="geometry" />
        </mxCell>
        <mxCell id="j9suDuCbf65Sm_-P19-l-239" value="" style="rounded=1;whiteSpace=wrap;html=1;fillColor=#dae8fc;strokeColor=#6c8ebf;" vertex="1" parent="1">
          <mxGeometry x="726" y="-516" width="452" height="324" as="geometry" />
        </mxCell>
        <mxCell id="j9suDuCbf65Sm_-P19-l-205" value="" style="rounded=0;whiteSpace=wrap;html=1;fillColor=#eeeeee;strokeColor=#36393d;" vertex="1" parent="1">
          <mxGeometry x="-112.5" y="-138" width="475" height="200" as="geometry" />
        </mxCell>
        <mxCell id="j9suDuCbf65Sm_-P19-l-204" value="" style="edgeStyle=orthogonalEdgeStyle;rounded=0;orthogonalLoop=1;jettySize=auto;html=1;strokeColor=#67AB9F;strokeWidth=2;" edge="1" parent="1" source="j9suDuCbf65Sm_-P19-l-201" target="j9suDuCbf65Sm_-P19-l-202">
          <mxGeometry relative="1" as="geometry">
            <Array as="points">
              <mxPoint x="1354" y="80" />
              <mxPoint x="1354" y="80" />
            </Array>
          </mxGeometry>
        </mxCell>
        <mxCell id="j9suDuCbf65Sm_-P19-l-201" value="" style="shape=trapezoid;perimeter=trapezoidPerimeter;whiteSpace=wrap;html=1;fixedSize=1;direction=east;fillColor=#D4E1F5;" vertex="1" parent="1">
          <mxGeometry x="1303.79" y="11.05" width="100.42796005706134" height="48.9532100108814" as="geometry" />
        </mxCell>
        <mxCell id="j9suDuCbf65Sm_-P19-l-92" value="" style="shape=ext;double=1;rounded=1;whiteSpace=wrap;html=1;fillColor=#cce5ff;strokeColor=#36393d;dashed=1;dashPattern=8 8;fillStyle=auto;" vertex="1" parent="1">
          <mxGeometry x="790.35" y="-133" width="327.65" height="280" as="geometry" />
        </mxCell>
        <mxCell id="j9suDuCbf65Sm_-P19-l-14" value="" style="edgeStyle=orthogonalEdgeStyle;rounded=0;orthogonalLoop=1;jettySize=auto;html=1;fillColor=#ffe6cc;strokeColor=#d79b00;strokeWidth=2;" edge="1" parent="1" source="j9suDuCbf65Sm_-P19-l-1" target="j9suDuCbf65Sm_-P19-l-3">
          <mxGeometry relative="1" as="geometry" />
        </mxCell>
        <mxCell id="j9suDuCbf65Sm_-P19-l-1" value="" style="shape=image;verticalLabelPosition=bottom;labelBackgroundColor=default;verticalAlign=top;aspect=fixed;imageAspect=0;image=data:image/png,iVBORw0KGgoAAAANSUhEUgAAAFMAAABTCAYAAADjsjsAAAAAAXNSR0IArs4c6QAAAARnQU1BAACxjwv8YQUAAAAJcEhZcwAADsMAAA7DAcdvqGQAADAySURBVHhe7ZxpkFzXdd/P9Dr7AsxgXweLREpkKEoqitCWSDEjR7KkchbJW+xIFZWdKqeSSpwPqkRGnFRUrnKSshM6JVtSUiW7KonWULYsO7FZSixSNmmJBE2CBEkQBDAABgNgMJh9enom/9//vDsD52u+5va8fu/de/Zz7rnnvu6ennZv3+bGxkZsbmxG1HqCV61WC/q43tSL+56I6G52BRdRFxzgEbop8N1uXtdrOm8KH4DEj83N6IEAVDbpM0Q06vXEy8Gtxi18gKtDW/jGFU5KyFXy5kCeLjoIrEfIwDeMBzx0wK9pXHLoyk1wmxpnhDfElqYaB194HkfuygqVCObBhQkB200YDdh8hhCxek8aAsEMqiH6uhvd6HQ7ZlqERVuY1QCS4TY592DE7pYhQVgXDGaGQRE0JEC70RCJNEmtVheduq5QAMjKEKKHwslCjtQgVC2d5LLs4tGRQ5DLsugeBwALvS1HiA40cfa6zpuSE93EOerqq/UgD3QyWHAA79BbM336kVMXJic9JVMNGuoDuqfZaoMhYFyTngIeGehDmRxH9IwAxlHGQGrFgzDa8rZgawjFvTpgmooR6XWx2lCkSzkkg14yrDCBAqcn1nGsorkoWHgB1VRkY8jESDnBwZmAWEH1c6YRrUlvmxeG6OreXbrvER9u6OtvtWKlsy6aChLJYAAA1Zi5zEg6uWZMdyah425lamYMIooznCO0iisEuAZG95DF8927o3J9XX26VGMMpsWgnIlAG0aHI7viYliNg0vENupVhEkh4LnGtJ3uumkJwyfgjWOZkSjji4aBMRA86MO5yG7+6jZdMHQNFG8rHc1GXVhVmvGzEf3A5AxCTrQxsqaGboC1L8V4vZuRsy6B5Rg1opJwTzjdigCCZX7B/41624QRH5owaEqxVr1hPI8BKzoF1/jWAKIcimBRIGKgQ1/mb9Fv1KuZ0SNempZEixuj5R1ScqJ4ZBpKeVG+YfdlGnAK0d2qHI5gJJwm091ibEZTvGwLXSO/6epIRyr1yTbIs53T1e9pjpK6J2xLvkxUBMwXvXgBJRzWakBgCAsmgQxU6Ze5DtErkyi/FFwbwcZiFKXuahpiMQTXC4voEJGlbU9tGlNNKUMylAVUQpp2I1cU62N0hlEcZ3BreXMGkI4wIIaHH7YpfQgELPpspyS/VUdq4HzqiJQAxEhHXkKwBgIKCA9wzxjEQMgcaNPKkDrLkOsoL7rwgGFZUDBekygQNI3IzpwnGhvKRTgPehqzaRnTDfjoSsrgniixFBpfrwy5blq6oM8zhmtLmq8u+nRiw/3bBtObeFKV5OwgnTk12fHiIhiCAzTSArPAhoQBh/qIYi9ygoI+jjdeS5HpqVcxwhyoxnUmfY2JMQ2CZuC7bOA1ENR4iCMcvK8+hPR0NX08m/AWyg1+eZ1GzutUgHsckSknZWERqWt1VerRi+izwcH3qC9MEl5UElbaxkpOMqMdzp0N6sBJh5GDEa+pIFhfl84VHTxKcCB75v6kZwMzrBN4tfQlqxrlgRAIfaJGBBC0CwO9EN5TBiw1q6BQrNeYuhkdGJqD8iO9aVA3LjsaA4/phKEQlWlLgyrRAxwszAZ4HTaq4SNWJQ/RhHFBgg/KFPnaWoFrkqmDQ8EBxlyh7yVPV0ATYZLJBu1RFGeZQ7zZBpQ9GgemKz3RD2PimGYj5cHp1MqpnfTKMkJolZVhSFRVxo9Wo2XWeIGDvl4JLHryMsaVcvIkuhEF4maloEkU0TIaEVSR5WhCcA/ZaJk2qms46IyQKOlShl7TRwamv3J3FVHwAYdr0hALJimElr1cwDlnCsb0NNcLWswqHJaGZJTDSDYkY3aYrqlFubA+jNqR6ihsmu1eX2JxM2BaCKMpoK1imD4TFSjIJkRcgYojCoNsGD3vq+ld3ZdpQUO9NGE2+HBsaEqT8IHkMFXh4uCcroVG4ZdQGD7tTsTZJWlcOQ4YDOdWkQA7Rcwo9WKnPAsdjM6Qi3F4C94zruKN0YnoEmS5uUBv6OkK67tkEBlySccLRBbL3tWYswyjE0JzW683HZ2SASoiCvmcbhiRBgNEw/Ol3IFW+lrjVYQ5Ylhc1C2OqZRoIJcXIPgKjoIFiijHVC70t1ZpHTn1sBPuTkOpVDXfDFKQgIRo6sY0hwC6GAd46wYPpMMyCjLk1RhlVLoNGGgJPUsjLKxBEc5uGsg0hMzopCONSqu8KS/aAXq3NDROggPWk6bqzuZB6+NpZ+0wRkYF4zgFIxKIjgbRIU91vBBxVplVyQMhlDGm3nBYpoZsWzLo8HQVD3iSDqyT+nF81tkpV1Ir72bv/rsbciB/QqScNQgBnNs7FMrS1oTUxxiNEsWJWS8WJ4hnNOAbIgwjVIxNE2HUoc6maELPHrRUKKiXDZmR5HyrlgaFfu7CZKqoax+/SsrRa52pKBq8WHWJHPjVJRO6sFggE5iws5EEj7sJFagz60gB4GPgQo+IA6JM7xI44HKflQlO5B79tejKwfACtqdBaWSMomhpEJSgVR8KU+Nl1NCTBD21q5wBDv1IhYkNqxeCwqylqYEz7VHwgC1Nl2lINQmMoJ6mkgG6SYnG4iPjrme5BGLyEQ8iVnLa5SgpgxU8+LtOJmrNRiN2AukKelWkWhGil8vEtSGFS/Bwj+MzjTFjk45nWUOCIBBDG4SfrovoHqrOFPQ2rEBK1PG0BTi8sy2cBMK4YOqttim/CQ9BeVqDUlkOgSPQZJJnHfZw9viauxKt9Ektn3MmEN3AZXQ2FcFlpm3zBI9pCBb9utZVXytzdUdGyFTFuN4d2Wl8ejAi5R+6eddkrNSXawycM1n8CBIGnGQFI3SDpleo5xqOBDf3EXEm412G1ZNxpJKiQh7TPa2HKSpATx26ENKGZSXEqOnhBMcwBVAKKp9tNRyA11UDM0pJ5JwoeKZrTr/cgfg5gmCKg6Dn3OrLNBK7NVbi5bVMa45knf1SvyNNcEBDh8W061ILbI0QLLIRMBlSaXhY9tSbrU3nDB0IBpIjrwgkFGSvaz7Qg9EtOIxNOHG2z7T09N0jvGFY6DrQGFGfnalIRmmMhjPglNO7GI8Fh4VlmyLvzAxyaMqLo7iGSUVDgqfz02lpMmrnplOWZ5IqEq/o6qehm+UTYLEJwcKit6Ut42rEI3jgMOIZ5Cmje09RU0mCICFUo44QOe1I+EylUn6AgzOABJdxrpsSGEGkir0LsZoUtcM4yzCeOqZcngswXclPjHe1pevE2vqqebGwQBdZmc4uqdwHaaQUD5Fm94YRyYW58IDDXj+DANres+sasbOCSVnySZNkQkaNOWWILuOZvnLHZqcbJgMDHJyttCKjSChMwPTB+Rl9CJZIrPCiZzhomAhaqJMpk8mYA+OKuv7WJDCgLTEnVdCyGMcpCJgkgae+ZNeSU6oba2urHhsZbsfEjh05s/zUKWLn2HDc88bj0WrnbgRlMFnSQ9ZML8ivobx2hGb0w5+RDIaihXZ1TaUzy5pGA4YHwj3YxzDYInWFp2eSEDkwNLNGutROQwxkCMHK97rISI2YGBuLucVFEe6JtohDECPzwtMk4BSAKK8e7YsAL7zsiKPLvWClSnDi4xD3pRDuB7bR34of+cAHY9fYeNy6Padp2YmJPbtiYt/eeMPkiTh+YF9cuHrd0QsORmQd9CzTPa4l+gfb7VjtrImD9Klkh76jz3yJ0FxCcGbqJAMKpjiqI2IN7Vby2YXoyKue4o5q6GJ40cmnRhpSR5YNREoJbcQyS6GmGWy0SvMiiBug2e3miBY+XXh8k+hDCd0zBeFBYi9oxbw2Rl89fu6nPxFPPPV0HD5wPJ55+sn44A+9P0LROLFjd1y7OhU378zH+upqfPeJ78WNuXnJkhFDpHiFl6JJUm+WS2dymc4pN2fKL2Zd5kwM1Gy2lAbWBMYUzqjOJlwiVfpSsQL9fzdCyhflU0KmNl2OLggS9gJjm9VQsrZHsQq9GBI4M9Khc6n9fNIZoT3GfXWdhhQ/0OiuBMOQbU23T3/q52Nudi5OHDoS169cjBNvOBn9I4OCUK3aasb+gwdjoK8V7d5WvP2hBx0IyGtelkdN51wguebIgIA/D2mgRaQRw6SxsmmwIWmCc3C5mYBpsshxzcYFGs6d1kL0NGEd3jDGM/kEKHfAPTKajauGUXNqZ4TC3GWHIqI8OadxDUrCqa8yngVQP1A81rOw7t2mV++vxz/7h/8kNjSvWHH7+wbiwftOxkc/9EhsqEhfWFiEg+U7MTkZ7f7BePncea/2KOmpJog85/awzB6nMBubSiR14t06SYftKY5RU/akpubUYMpbtXLXT50xKqEmWBETajJJAD7zYaWTcBrB0LCALatsBi3C5S6Gh7TgFYI4xI/XJE9LecX81YetgaMOhD4yQjUFJOcIob8W/+rT/zxWRPfSnRvRNzAam51u3JpfjakrU7F/z87Yv3sPqFauI3/cnL4RFy9fig+9731x74mTokNxDWXoY4CMNq7pzoVyO4I5ZURn6kEO9HJeFRb3ZUFLurqXMp61nurorrSosx3RrLdOM0bW8N5cXm+ZaN5Dg22gldc7kVT5QkZKRi2VKq4ETBIYwUsoYAB3mSIHZdlhQlYAWjxIbg7W41c/80tx4eKMFpvp6FnviekbU9Fo1WKluxJTMtrkoUnPEhYHhP/N//rlePaZH8QPP/KBWFlfiZHRYZfSt+bumA9Pd4ginJkyI4P0Uz93uZdH2tJkeAnFfa7YiubqGnxg03hpCw7SEjMx6YpPfm7OEO/JlkPDQkylec6Hd9nDgli876ZxvFOYkSZ45O9cqz6MzYrNAgRsUYwr7WWjOVCPXzn92bh6aTpuzt6KhZXlWFmZj/vJk4OjzCxFsxQSOZdqMuU3Hnsszrx0Nh5553t5FuadmEd0fv211+L8xUsypFhgTLV8ICIXYFvLmv2WQXJ6sbJcaTjswD2zLKOTByx3b1KqxmVRR61GHZi2UY2lqHTupDRAPEeTLuVFThiXfrO1x7hl+iKoBBQQDxgYYBUkUteU0HNlxYMg6FKEBgfa0dm3Gf/5N34zbl6bjaXF+XjptYtx/vKFeOtbHoz20A7z64hPrckMkFN1/NbXH4s/lyH/+l9+j6yEw9TfxCjIrwW/t88G0yWMMpIlC7y9UAmlPKJzxKmiwEmGVwB5glvOsjGRHtKPcQzPzCWYKI4SiRqzWnN4RtgDAP1qFNZr1YIBYGHCOEJZTMEgPFCs8G0dWTIwpDHBsPrzFRhJWtFQ4wJFpRTi/c/Pfzf+1t/4ybg8fVFljnY7ndvKf39VBXQzmj3Ki1ICddakLIvM6y+/quNc/NSP/micPHpC/DOdNJQ/4c+nni+++rJlsJWJQFuR2YQoOJ4HLdpCin+bXUAKrZOoYWz1gw698pTetNEXJ4gW9wQKtgCPLS9R3FNvtODqcMaT5BvKG8iKt4HxRIpXmUUES3lEM9lK/vI4DjobrNoeoCVzcmRjsBG//Au/GANDQ/H0mafj1z/3xXjvu0/Fux8+FRMT43KEIkqzwgW9ZBKRuPDy+fjS174cf/PDPxKTk8ejqxWIVf8HZ581X9rj3/uz6CwvbfO1IXOMC6covXIBkXGlg5+9GggibFyI1pyJjnDhkKNLagOXg1s/nwXbcI5cLQCKIPKKIWRER6boO7eoC8PyDktWeXNSM7TlkjN0zoQMGfIXCnFdXCBBVeC1h1rxy//0MzHUbsX//t4fx+rcarzzXaeiZ3A49uzZLU4kflZr8lXL02fu+oym91fj7/3dvyNjfjCaqjVbvaoN27W47433+OHx5StXgg9RZAqxIt/JCOJNMCETBiLquEY9+rnhCZbuuNFfpoNibM8wRtSJnvmRNjk3McDhiZrp6qi3mq3TyQD7Y7RNF85Zi3Hc1WACYb0YMWlHDlM5Synaxgbf0UnwIhhPeFrDrfj0P/iFmLs9H8+++Odx49admJq5ou3qUPy7X/oXceT40Th/XnXj2npsanFC9j958qn48jcfi0/+zI/Fex56p1bMRowMDsadhXnT3RD7dnvACo72D8XV69NpOPFtMNMsG8oKgPBRyyfm2ecZ6aaz+BEsGZe8ZyDkI8acqbRcXOU40+G+oqV2mpWYIz8+7dpzDJu6DhByBcwYTWb05ZnoKat519/dSSNSNoCLIftH+uIffeLn4saN2zF7Yzqeevk1rS7L0RgdjZ/98Y+b4qAi7t573xTnXj0vUhvx0pmz8fhTT8ZP/8TfjgcffHssaWov3FmInTtHo0+7n8XF5VhTrq2x0iKYDL1jeDCuTl9DKpkRo5K60iysB9y3FE25CFXGQFadM9eiBWfKK6oA3VH+VC/skLqpnzOw1TjLt+pMMTQd3tJgPktCrJ6JV2EsuAQxsMugzCUcCccUr4bNtNlqRP+Okfjkx34qZrVFpPx56rkzsWOgFUcOHIxHTr07NuT5uYWlWJcjO1pE3nHfm+Jbv/N4nL96IX7+k5+KN97zBhlxyfz6lE9mZ+dV1PdpweqqxtxQTXo9xsbGYuralRjfuUuRveZt4eqaDC0Z0CHzWsqWhsyoJNqQvrxTweBIVwGVwTAV+qEWOCzEOIU+B5cG6ppJMmb9tJUWMsbC8kQZU4z79GoVhaYpdGFn+aRL92FIyihC391mzT76HhmCenDmxs1YWbgdf/bC89qtTMbJ48dlkOG4JQNPDA8LOhP9QK0dT/zR4/H73//j+Mcf+7gcMeEpzZTtb9djWkY9sn8izpy/GMqa8eqF1+PkocPx+tWp2DG+U1Ha0XlcKzx1MU5aFFW9JGhX0xw9/S0OCZpPxVAg+21ibm22VCT34EQijlDqEFyqjIPAzFlNJzYzIEaksAUiWeisa6YKdw2VT6x03snwEjycWb0hksY0TTUxUufErvE4cfR49ChSZhQ9f/j0c/HwW94Se/ft17Ysn3YrW8dzr7wSy6ur0V1ZicuvXojT/+FzcfLIsVhQ9M1oWq+sLEar3YyVtW5M7t0Rl69dV2QPx53ZhTi4f6+iteat5o6hEW8Edo6NxObIiKZOQwsVZVBKxedRRCWLBvqhR4k76tnUh+XEZpDudy1I6mem+qMSvdAXvTEqzcZttVqQMIFkSasMCSW1jNQ0MttOrsxAGJQ6aywYYuIGA7127ZmIk5MnYnl5OXo1PV95/fX40F/7QPS0iYj8aiGrI/t7P5TVsXJ7Ib7x+78XH/3IR+J973qYOaWCvRlLSgG1em+Mj/bH7O1ZwfbGWZVKQ4N9MaYq4PrMtejtH4wfvPBcHNq9Xzl5Robs0WJ2QWPX48VXzssoGUHIzTOCStCMVDuVlqYtSxYaEhQsaAZGXxmVwGOcp/+2A3bSqd5stE4TcTwAhQSeYbWDMXtbLM6jekg5JkWYArYkYPjkDmfbGX197RgaGNI++Xa0VOK8eOlyfPzDH44NKegvjgIoz0CTiMfTF7QgffuJ78Tf/5mfiFPveMhROCZjzcnArXordo4PxtrckrzfG5cvX4ue/t7Yr8i/cu1yHN97OJ56/vl44+TRmJu7pdW95adODW01683eGBsalFFnxLL6ggIGcNsOGJvP+hIo1Zj7Mn759nLqTHBBIucvYxgUKvV6s32aTwOTQPIhdzDsEkJnwrt8HOoHvWKKh1y06mBhwKCMg99VvlpZXfbXsOe0Yv/khz+iUie3ZpRg0HAxLHQi9LtPPhHPnjsbv0J5dPhYLGmFxiHLq2sWZmhkIG4qVw709sfMzevCb8Ub9hxUenghjhw6EWfOvRiHDuyJ3kbbAgwPDcfFaZVcO8Zj6vrVGBvdYX435dwSBORLdjhZ9sCG/jRkFuPYgCNtAJ53OhW+PwuyUbdhXRrBiDvsDJCfuGAcWz+jtUwRf1pYMUtPcpUPBZw3TDYFamrv/OMf/ahqQUWjaPtPB7CUJ10tFr/1u9+O27evxxc++y+jb3gkukoZw319cWt+Pga1z+5TBN6eX4iJwZE4M38jBuv9cWBib1yZej2Os/BcuRi9I4NxcHR3LM7fjJHRiXjuJS1ycsprly/F4QP7YqDNfn0jZm7NxaochI6pX0abXzp7TbC+qYXfGZfBMskRAPlhnetynVNb7KdZ0KBod0dGXT560xiG0z1jGBIkjFk+faQl84wuE3RDGB44tOOR979feW1YKUT4Gma3QapoVDnzq994TPl2IX72E5+QIG2t7oMpg2bKgHJlTcacuTUTg/0jsbQ0H/v3nYz9I8MxNXU59hzcF/My8ppkOzK+J85PXdD4kXjmhWfi0MGDWrQ6MaA0wS7q9vxt75LeeHTSzz+JeHTxZz1qIuGIzN0d+mf0cTDY22pbb+CsOmMgMq6r7FaweVVWy8+t01BZoPPoixUa0DSWp4JHcjyjFQGozdzlVpNB2oPKVZpefPKY/t70c9IW8Cq+v/Z735JSy/Gpj/2Yau2WFpnlWJqbE+V1Tz0lvZjRNrK3PSyKG6oZFRFr89oyXot9k4OxvHAnFlZX4p4jx+NPXng2Dh86GC+88nwcVO06MjwqNZRzR3bE6spyDA8MqMhvR+9QfzygGpbat0eLG9FVVuVUTHLKwP7sK/9s5fKZOQ7gjMGdazkElPW3UwefTmImBt0nZZSqdQExeyfJmikGr7lYT8OTT3N1pFWpQDuRe44pinbtzs2AQHEKAjS1//tPX/lKrCyvxDveer+jqKfWVIR1Y13GWVhdj6GhAU3faUWTdjnKcxjk4P4D8eTTT8tJE5rq6/GhH/6wxu7Et7W/f899D8SVmaux1qO6VtH58sVzcc/hw/5Elcd2733ooVhcWnIlcOjAIf+2Z3r6ug1D2sqFRjeSnfO6ZKGudQipo+W0l6FEUe9vS6u/RC842FD9zdN+FkiIp/kMQHItZQBGzp+N6FJj3tibUMYoH+RXmBZoVEU457n5udi7a8IC+JGc3n77q1+JersRD7z5ftO/MnND28MxTzHu1zqrMavacqDZrxw4K0fVYs+eA/Hd739fNevh6G+2Yn5pQ5E8H2dvdePoRH+sdlcVuRHHVBa9cvHVODY5GTO3b+N5ydpVQX8lTt5zTywvLmg7eyseuPdeXS/G1Rs3LCdphXUhAyTXDS8uKG5d1avLNCBRqKCpNAaeMWxWbytnAsQMB47BXN/yGSLIfDUmCTHOSDKlD6I95NYqNcB+eWWV/OHrmzLM7omdUe9EfOnrX4/h0cE4euwEZaD44VUWhluxf2IciWJxeVUG3YyFxXmZoSZn7Iqnnz8TRzWNRwfaiq47cUAR/9z5s3Hq5M54TYZdV5Qf3380zp57Pg4Jbvb2HPV69PYNSJZl6d4Tt1QFvOut74gpna8rKt/2l96ivhva3s5lgNhYaZQ0pHSh36t12sMG0zURmo0x3qsxpjlTMw2UaNT4tNwyMob1sw/U8qiNBE4vC1FaOpnSWDVhQPfN6Wvx+JNPxuTRg7Fn74Foi0OPknq7xfQRsDw5rSgZGBiRQI2YXZhzrbhzaCxen7oY+/bs1VTDMfNx7OBkPPmDp+PNJ++NazNz8ZYHxlXLDscPnns23nTvPXFHEVnXrmd+ccn5eXhY9al2YEzl81r5T73jbTF15arq06vx8H0Pxv/6/tMyJJFUJM/ciIIOFNGwVrxx1uEguktff09fs85FO/kgkRyaes9VjsSKofKJM8bFU/ktNgzVJ4OUz0YwrutNXXi6i8myImZFW8Rp7csfvP++aLSpA7W2DA7IYIsq7Eeis7Jk2H07J7SX740rMnxvX6+2i0Mxr3y5b9++2OisxcLyYuwb3xvfPfNcPHT/m1SX8hGvVv3uWKxszMWB/W+K66ope1SOIU+7UfM3ORTeWnC0Gmu7Siq7Mn0zfujdp+KV1y7Ef/zK12JtSZGrF7oyO4EhNnLDQuCgby5AaFXe+1ot7d7YrKTdsI2M2czSaKtoyumJQORLA4kgxiJGuaex4q2ud5xLaUxXojfTAn0Zzfm9zlrs3r3bSZ3k3lnfjF1a6edUS7ZEDkU2FeWvK1p2jQ6rYJdRtSXcJQMvLS8oV3dcW/7p88/G0SMHo6Zw3oiOVvLD8QffeyIa/UPRWZ2P3UPtuKMSimeebUULitzQVpSPJwb7+2N5bTU2kKfdH7uiEd96/HHpiT6pE0pSY1MaYQPrLN0Zz+8W5XTGDi6fgHH8Ai3jN1v82oIbPsUr+1TuqTPZJTCcxO09nbFn7ldzSlBO+Mk6pM1cV3IzEBTmOIan+fe/+T5XCozwqGF5rRNXr16N/sGh6NfU3KeFhqjEMXv37Nequ+w6dZ8ccfaVV+INxyZjWNN/Vbz37zsUf3rmmTgxuT/GVdAjww3t0a9evxWDYwNxcO9+Rf2aYeeVk/v7+uXEpbizsBKLKt5/7fNfdDorBkIPgodPHPx7SglPzbtePZ+lGUY3aEj5tzWG1dWU9pQzbV2I5ZMfAOgjhEu0wTDrz6SMefEWRiL63CdYHELiBo4IJWVQy1H0Tikv7pnQ6q7X7ZuzcfblVxR5y47yVm+vP/Pmq4hjw0Px+vQV1amjMdo7FM+/di5OHjka62vLsSJeu8Ym4tmXXoyJvTtjQgX9imZIX2Mzdo/vVhm1FtdFe01wO0dGVQKvavY04o5mQaikqask+dePfl66yJTSNR9g556dtYa+jL2MPA1adnSlB4PycKfLrzMqKL+0A6o+N+fWeJWnuC7RpmuiTf3OjRUTzJ/byrzPFRFcmNOPJ9m/UzbJERKWhw89VAZ6kcv4nmTh21LEHTl4OAaHhlRrLseJI0dibGDYtCbGd6kcmovRkRHl1t1+djk5eVRTkskVcsiq9uGjSg9NLWJDcXNmJl569YIWuz1xcPdO5WdtCLSq37h+Mx599HOxsLZixyM5M8z66o7nD1y5ypDRG8q7a0opaE1goSsHgYa+3BFgrlV1rnJm7jkxJFPZ1N3gkntWCDBOI296SmzlF8TCO8CkeTEkV3wCyHhZvExj0+IJX3Erp7GI0X/7jsoUncd3jEVnrcunEDEog16Q8Zjuw/3aSiqvHlWhf1UFeI+Y8WjvxRdelKFHY6h3UA5ajnGVTqsqzK9NXVVVoG2qdmNrWt0/829+LVa0MYCX7YZ+ajyj9SeV3FdGYgQ92O38xQfh6C/5dcOZx4j5EIg9u6Y5CjHobVRFhuZkKwPAJAUQgqYuLSGyuURSBwsVOZbazLlUY3zjDFinEo27QMYZitT8aCBTCzkWDy9pp7KgY2x4RN5vxo1b05rWoyrW2zEzOxMHtLpfvzmjaS1cKTChrSNPvV5Syti5Y8Qr96Iifo/ybFc5+dWLF7Vir8ZvfP4LcVtpBJmyyWi6QSckTeezFvCV79Qdm6A/xiwm9rqBwLpnvNiLeFXR3nZplFOScxpQb95GQcSbfL384EPGggQWYIrxBAVyNhDMubYhM9dsbECPA8FzWtqwlVDIkxELLKN5z8OIPlXSA4q4TmcjLt2Y9pduF1VSXZmejoYWtla712XLDu2gcMC5l8/7syC+GNGrvLZz1864dvlSfPbRX4/ZuYUt+kQSBkMeIgujsOjp0i1NhGIYUuPCwwIESzFk6gQU9kiMeqMqjSCWPzLKCOPe0ahXRmd6DgIom2TSSHjOX0GhRx2OYGCqAzopqHC5EIwFsGAYj29/lC/tq5zqdGKgtx0N1XKgEc1DAwMa1zZKDr330JH4L4/9ThzeMx613n5XxTt27NBQM545+1wcGB+PrnRgj/mLv/o575DgVb5klbLLkMhWBUfZgDhwdMEMdBpzoKWufi4huuicVJIeUQmEdK6ddrSIMETUq6YLYYCEEe8OZw7g6SPzEZE07nFCejqhgK6GRUsXCKoXwjkXiad/7SZKRAmRwNMcImFxeckrPSUIBO0UrdCkojktJo+881R88Rtf9dayT5UAKWR0uD9eOnchLk5djtH+wfi3//7RuE1utTxWyfzTfNu1IjISADTyeElR/gRBDXjuwffhTnRJ2KSOA7QDks0dSRgAC5dQzrCGoKY7eVBc7SUTymmtyPaXtRyReBni6t/kKy4yBGLVlAv4witYRIBOLva9e8L7gncu0gD3fc2myy0iFBiehzbF+z0PvF116RVXEYva3bzv4bfHf/vmf4+TqklDOCh34tixeP75c/ElRe6ydk3IlFphBZQnGlPetmciMjPd8xlrgc2pDQq654wSaG48ZOScrRkyxhCMdGtoAcpcZmiAWMFhyi392Ec3GWVEbE55jMUUtKBqRGmC5DmNDh5TSALIOfS1NH0xElbNKMjUgFDwgB6lGZGxpm1gR1tSptclFeXveuvb4oLyoLwRi0sr8Z5T71TZsx43ZlWYK0Ln5mbjf/zhHykatdBJ/hIY5sUMsLm41bv+0BHeQHCPUZDDqc5dBIZHDWeipmBgw2ezMWv+EgIWt7LyiA2qaxo5RBMBPMgmQZqJJBPY0xAA4oaRsHjTolXCgO8VXLUbD2ade3WkyZNKb7PlBQIlswTJH3vOLq9Fu1mPS9q7/5W3PRRTly86Ly7LoCf374kvfPnLsUvR+dvf/F1XFOCnnlWu51AHnODFk7AUCzmJWHRFh/xaJfKBJAmjZZlS3opoOkZ68vQrKQq3ociEiUNXFK14OauBiwipGBKmwdTlyEwoNQTVONtFn2EgWPAyNyFwUQBw2BfsNCSw+eMq+JikFsWmFwF/K07TvqfRiktXL8eptz2svDqvY8VFeV26f+f7z7BUW0kvdPhUb3aqiGWUQrORxmIUvZFLdz4je6WrZcb5LHy6zuIcCjKfyJO//c+jLL2gM84gVj4GFWhiqGEQACWXASul9aIxZZHCAjv8daXpy49bEZUpAc389pgEqJSBWyWT76AmH4gHJUvmKAF7GLZsBzHEqlflrhaVhfiDJ74Tx7SXf/XlV+P8ubNx5sUXNIb8wiWCkBKiUGeWuA+6FNlWRm3b4eiQPbqCjjVFJpwjKrol4KxzJZ+dIx3dpyZHt/h5KJcm5+jxHAG+AlKfN/0yVPEexoemLswcg4FGriUSoUO//VvhlAcpGTniqj6mFbUiZQsCQ5IVnM+O8Lw5aXHwRyOKEPhPHj8Wl2cX4+jOgZi6ei3mlQLq4k1zrWwqaRhHmGRCfvrZx3tzooPozIUXWHJp9XM+4bhMEwzTWMFuXZHGs8z9PAGzFfSq8Pv6BjZ5KABTLwY+UimI0mfD+B4sohAvw0DE1YlBwM9pxAEBnWWgVCbZETHFwygGXZgRkdkqOB8MMd3SoYhN2cIzTKKXJ3/r2hDA01iw8znh+VcUriDuIm1Zys1faABt9yEWAUXKQj/GPLnUMmpp6qBP4yU91sr/xZCcOpMbdRYCXuUBKdOUh8H41UT1gnzuivIa5lZKF7zsAMMnIwTwmGBc+DJm+BSWsVw9U/P80WlGOZ9Hw4ceIhiHEBFrClRmK47IhSxl0J9bx4scMy3HoI4cOL40HjESpdAGjf+7QTMN6NmQ3OdTL/DTecQoAwLiTzd2lLZknM2MX1NYYHU4GnVuaYVc6/D0CENnuUJj2mQ+SWPkTgHFYYZzqnrOeKIuHrkQAZ8Rmqt2blP5+cvK2qr5IpCfyggHWjTgU5HCwWLaUPAnIh3pHsuZ5ByqVp7qgG/6UGEMeo6qggcfprhoOapoyQ2ZoSGWuk9zwtcQ6qS/+vF+SkUO8YCIW0Ch5LPKREQhYoQRUoO/rMCdzjjCcGLIuH+qzLXwePHHPbBEKAYjz1pRwfIrYPAq0cWrcobw+T0jDVk9R6yYIHEYZ8urae2nUeRsHCVdRIcXD0Lo4x4a9KUTG4kLR8KLWli0XeIJOp/vZlrbghd9U7KDMhiEpB7ZJp/aoKQ8J+H5sRF+JdLIUcDCHiEyJYi5FgQbGzxeOmcUcMc7RmeKCl+S5oOUNJBOsaE36PkbHsLjH1H5t+iogIDCdzoQ/1pNe/ZO/mQaXBSHn1NACqf+IgNnzSZFucfV4JsOzYahPN3Vl6kKMdNx8CMqzV8HX+Epv0SBBosSBuaaAOCcEYzkgmlqNUdEI1Qs8zoF4YLcUYznUQRVP0l6W0ymEPkIbOEAi/F0Xaa0oXWdC1Y6L6uA7X0yLX+2VxyV9KCBA/JLYmkEdm4u59QYA5/al/FsWTMSGB4Xc+/2oAk/dNriSjqQUXVm4wJ96tPU3eCM6CAokBlIBgBkSPr7l1y62yoRBFS+rgwkxHgBTMLOFTa/5XC38WGWe1YY5RQjWsmx5ccGRBDRnl+nSWOV70Yy9YkCGh+g0bKu04VoygxOJchj42uMz2qQheexNOdZlNc1UYeyxlejUC8fitlBwHpccIZlsWW3xe9BJZuOsgDBPYPJaDlmOsKTwY0OTF9v7ybKAggR6iyixKaqoqYQISrIlWlC+mCTwsG21KJM5/JxBUy8G1HLlVsXhSDniho04EdfOoyVlzxeYCWLXkSWjVHhwROH+L9yCTZ3LGmQDJnUy7PMjWgVDNGqO+iRLm2PiiYNw/sLZ9zwZp4ZUPwwy3pLTvqsvN56Wq1e9aXV3aUL8gmresklGFEXoHsaQR2BkwrSVKEvGBTAAbnrEYT7cUCu4I4qHV7RhV9W2lxBcXQ6ELp+CYmXczh75A5fKEiDIGsaAWjRFFpOUKvmJ01rAqgksWltWHha1gwC9KXPmxLgJAgiMJYyoyI2SqcwBp3sSxrwyBWBDh/kMIyRSJiNe9eHFYp/eF9FH+LBeHsxQBSETA2g4wgTrWJIGrsHT3cBGVrdmcg5MJJOXpA0JgAMSeMXFCl60kIZMJwyLGPy5Y2oNozgKR/zl2jVsK5R2wcUxYvZidMwajGQAEURDN4tlBDQGxzGhYGddFgWcg9KFwRYFlIWVZeJnIr3KTpspIqNx3WPQZhqYJGfvJpDUf1EoiU3Bwmj68xH7N0V4cL3h3Z2JPnW2ps+TkDQlA8jpmFRGCOX6EjeDKQ8PuvWOBhKcFxjjEpyy4ZefF07+SRtsKDJ7AHIjhKcKYgW8qEjHJJSvtcoI+gq02/r6bIYcZ8KInRG6bKiI+uwJIHACEgqYMcBLZT04mE6aWj6uCdK4JHfxiUWMRw4+UEWn5uXR3c0R4logOuUo1IJzhkRrNR8rEaZxSJTxrIGdAAI19Na9zaOKJX86ZOVwFi52HGm8X0AngcQQlmlFPmL07lLuzEj4NHT6u13zJmQPQipFIJ8xqqI0CalPzwIHAQhZ2WNYalSOCnNw4rMt0rkzkUMIIho27v0mMLd2MZHFnr42eEq/95bHciFAfPTT11XDoWHo043pKBiMMagxzNQtpY4tDQkxwHInumKtUCOYWGpHIScrgxEyAsWQlkwGbZaXKFScjx0aljfq6yIU7qwcCAODcK5QIidhEY8Vk9Zv5q65KPc36boeFhw9MFMXR0JyDfbBFxNbwRwZrSgVkgMoQEtkDyuy7Xq/6Sn6ml63lGAxQZzgu+cijgopDErBi21ZW3ibRz6q750HQdLBmeVYXxDw4GTxjYzv6VO5FwMTFhliqKlIU2Lv/z/mbqXhdrah/PNMYzrbw+rG2ArSROejYVgGiVqHQmCyZIhw11QNiSKUhvyqWJGN0pDL6MWp6TQKE+UFSHLmQaQjCv6nrbKsRjL09fnIn5xFEbjGho4SjCFLkIJuEQT8mHMvDeAhnGXbrgvY8nB+Lo1HpAEBGPYx0EBkIkKnBoSY/Ty4ZT62M8yjpC5gyHKtvfG/vKCQgQwP/8zrHKY4C0s2FVUoDxKlcIcGo4MRDBe0s/o2HYkzbskVxFyCoLrZaXFG140F/3q72vl7gmHup8DA+hFqkIvnXRmhEhOXRwkaslRMmkYySyDeGT5xExgiOeZBBO0c5YwU/1wOL2BgjCpmBspIwtF4E2fuUgsDMRtmSZWCsJgCbArvzVrKTywTDUbQcIjJFMzcxG+hYaJWwaELD+fSX7J02UJxsagNj7wGIMpijyib9/wAIUdVGImZVq5Kr04NhecVLjSyfeiTU2t/uJUmrkIwHwlA07Yjky98QUlbvBt/hHeig4UkiHxKAzwjJXyuxjACIIyTOajFAbj1VRmZLEO3cRxbrW0gtW1ULnR4U5ubADydNlzV9ZJ+jY8jjOiGv30QA+SevMQeZQTxk38Enmcsw/JpIVguAYXsg4HrnXG4Z5hwEBbGEme6+SFnUxCTXoLSc7Jf+ThLh2EcO5TMVuayOi6qu5EkChLUyE8pcXWqKcdGBlFuhLs1m8NLVia2bZQI+KQxZFJXtSF6blUEa1kuoVj04gm6YVyJcfs4oqWIgcYdZinWgaF9JPVgMO5OA4gqgRKP5qfMRgb3YWvfr5xR0unCN8zMXkB11b9nf9aXJSZKn4io0EmIvFojmoOaV8JVH3eXYhYCpRg3iMrrCCGd/2xATBmhmGgQ4SkLfOenAVv8jN4peVVoZ8RU8ThXXeC97i3t4LZSgmpPM5Fji14a4ApNcZzS9KQFjVHqkb81XJfIRdRmtPXzwbu6kvtsrHoss7glLul///t/7lF/B+x2NXW2exEwgAAAABJRU5ErkJggg==;" vertex="1" parent="1">
          <mxGeometry x="-93" y="-496" width="88.4" height="88.4" as="geometry" />
        </mxCell>
        <mxCell id="j9suDuCbf65Sm_-P19-l-15" value="" style="edgeStyle=orthogonalEdgeStyle;rounded=0;orthogonalLoop=1;jettySize=auto;html=1;fillColor=#ffe6cc;strokeColor=#d79b00;strokeWidth=2;" edge="1" parent="1" source="j9suDuCbf65Sm_-P19-l-2" target="j9suDuCbf65Sm_-P19-l-8">
          <mxGeometry relative="1" as="geometry">
            <Array as="points">
              <mxPoint x="7" y="-286" />
              <mxPoint x="7" y="-286" />
            </Array>
          </mxGeometry>
        </mxCell>
        <mxCell id="j9suDuCbf65Sm_-P19-l-2" value="" style="shape=image;verticalLabelPosition=bottom;labelBackgroundColor=default;verticalAlign=top;aspect=fixed;imageAspect=0;image=data:image/png,iVBORw0KGgoAAAANSUhEUgAAAFIAAABTCAYAAAAMcFA+AAAAAXNSR0IArs4c6QAAAARnQU1BAACxjwv8YQUAAAAJcEhZcwAADsMAAA7DAcdvqGQAAA47SURBVHhe7dxniCXFHgXwcs0555wTijlHxICCqJgVsygGDIifVQQRP4ofREEEFVnEjFlBxZwT5pxzzunN7++c5bo8eG/u9MydhXug6e6q6r5Vp84/VPXszvb3CNoQ48JsI5g2ej3EODEksiMMiewIQyI7wpDIjjAksiMMiewIQyI7wpDIjjAksiNM+SXimmuu2RZeeOE2bdq0Nu+881qOtaWWWqpNnz59tMXgYYk4pYncZZdd2hZbbNEWXHDBuv/xxx/bW2+91X744Ye22GKLtSuvvLLKB40pR+TWW2/ddGf22WdvSy+9dFt//fXboosuWkqEP//8s3333Xft1VdfbV9//XW1ueyyy6pukJgSRB577LF1/uuvv9q3335bpjvHHHO0ZZZZpi200EKlxrnmmqvagO7+8ssv7bXXXmuff/55W3755dull146WjsYDJzIAw88sM4UN8888xSBc889d1tggQXar7/+WqQut9xy1YaP/OOPP4pwXf7pp5/ak08+WaQuvvji7Zprrql2g8DAiDzuuOPanHPOWYQsssgiVUZ1b7/9dikQgV988UWbf/7523zzzTdDmcoBqV9++WVd85cffvhhu/HGG+t+EJh0Io8//viKwN98802R5LjtttuqjiIpU0Redtll28orr1zllIdAxDvr7vfff191VIvISy65pO4HhUkl8sQTTyySDF4AoaDtt9++6hDIpJn277//XopDHDPOGQSbr776qq61P++88+p60Jg0Is8+++waOBLWW2+9duutt7YNN9ywfKEDgYCokS6V6pxzj8jffvutffTRR9WOuV944YV1ve+++9b5hhtuqPMggMcJJ/Koo44qM6W0VVddtd11111t0003rTp+kUn3kuYsqABluv/000/rnhlLjS6++OK21VZbVXv3SF5rrbXaVVddVe0mG3icUCLjExN5n3/++RnXypGICIToRkzYNQIdgg4g3T0kYnMTwPzVrbHGGu3qq6+usskEHidsrX3OOefUWVItcb755pvLrEVp90ya4kJa0hrnXHMF2gQIQygfu9pqq1VZnqdiq56jjz66yicbE6LI888/vwb97rvvts0337x8ojMFIoZPzM9SY4hzRJ0///xz1SdqO8DzeeaVV15p7733Xikz5Uil+ptuuqnaTwZGfrd70z799NNrIHyi1cm1117b9tprr8oDEWiwlnmIgJDnCIGSbMQIUDF/9+oR693aa2c19PjjjxeBypwp9s4776z3TwZGfrdbIk844YS2yiqrlEKQefvtt1dgWXHFFYsMBzBDuaCzwacLSAJEwZJLLlkuIH4U+QKLdTbC3Tv40ccee6yWix9//HF75JFH6vnJAh4785FIpLrPPvuslmx33HFHW3vttSu5nhmUqS0gEUkOOzrZoFhppZXKPSgPolKBKhOjjAoHjc6IlGwjKErcZpttKiXpHXAQMxR4PIMwuWHaPPfcc5UzItWzM0NbpJsECoWoXD8GgU6IPO2009onn3xSA7/vvvvabrvtNkNxSApBzDDqQ5A6z8SUEfzQQw/VNYRE7akQ6aK25ywvA9GauVuTDwqdEGlgfBmIzoHyXiCEiqLSXrUhUwQG5C6xxBL/UjGiQFlvuXW7/UkJunKKlL9ONsZF5CmnnNJOPvnk2hc0GBEUMthE5oDiHAcffPBoyT8micCXX365vfPOO+UDbfCKvJDJ8D5tk4SL2Pfcc0+7++672+67715qpFiE89OTjU4Uyddlt8bADdZAfRpAHBWGVIMFe5GCkgj7/vvvV0pElaI+UrTnCx2US6FUT9Xeff3119f22f777z/DjThnW+6ggw5qhxxySF1PBsZNpH3BKDEbEIhDioOKHIhRDkhwXH755ZXGqEeOSG2ZZ+XDvK2tBZCZlW3FQ71HHHFEEQ0U67f9pslEOOy33351nmj0TSQlyPuYNEi+DSTEGRBlIkpkpcwQ4t7AEUW1INfceOONS5GBwJKknLmaNC7A5sRJJ51UZKedKC4Aae/au/1G2kw0+k7ImY4l4CabbFID5dN0HBDptQboUG9AMWvnF198sUj0HLew5ZZb1rpc8EgURi4w+5deeqlWK2+88UY78sgj6zfiNgBxjlxnB10batePidpqG1F//yubvffeuwbq8d5EmtqowjmBgvkxtRAs10zQ4A74NQP2DCXbkBDAwNbbU0891W655ZZyIQcccECV50MZICowOd6h3sQilCVEoWADpUvgsW/TNnDg4A1I53U01zFj9wgyMINkfsqolDtApLM8UQoj0FjyZbkoGFGoyM4KQgaFmajoQHnq9E09+K1cswTqngj0TSSTNHhKNBjEIVCE1XmHslxr5wjxjsB7MkDPhERJ/r333lspjk8V3u23HInm4HkT4/eRZjK0Qax+mkBlvXlr1+iLSHmb2c3Acma6iKAIRClP5w2GSXvOAJFqf5IbEEiS3ojIzJCPlCdyAVZOWcl4X1wGeE8mxbsR6d67TJq+SLPcey83YuXVNfpWJHMMaUjUeUQ6pxxhzhS2wgor1H2IdPjIH1+J5KRRIBjJL/fZZ5/ygdIgZ+8OTILD73sv4pzBtTqgXtfKtJ0I9EWkGYYoIaRRC/MSeflFqrL50LuRkEHnGWaJ6HxSQOzrr79eAca6vRe2yUJOfk8fKJQSQyIzVi71shWnTr8SFLkRq6tjjjmm2neBvolECHUkDYGUAXIMBFFgkKlHlucQbZvNIMGuke/cTNrSEwQY70eW9kEmEUIgcAEJLvrp9/2Ws3YyAocPaiajK4z5TTvuuOO/oiUYFHIQotMGkjwOqJNZahPSg3ynfvTRR+uTBPJD4nXXXVdp0K677lo+NqlNJse198UP6xfFKkeoAGTiKDDkqtt2221rc+WFF16onPTwww+vuvGgrymJAnTSgVQHUnQ0JJtxAzJYBOdQry6K+OCDD9qzzz5b52xoaONdgcR/5k1i701fEBVCEeiIai071fOV0ih9tgiQB0vwu1DmmBNyMynCbrDBBqUAxOgwvxi12UzgpwxSZ11rG8X0RloBxkYun9i77PMug4+S/Cb4w4Lp06dXFAYKzjOgP551mAikcTP64myyWYs/YJUa+c6uv8ZzxRVXjL5lbBgZy9gT8ieeeKI68+abb9YgzAPTjd/L3ysyQ+mGzQURN/UGx9QQyGyRwqz9YZXBqvfeqCurncAnjM0222z07h+YFITlOuTLQz2vjBpNhoAjBfKN3Xt32mmnUqwvkvrQL/rStA9NOpnozP/pqGOPPfaoQSEtBGelokxbRDnshpsUaQmoc8RcqSoEmRSHvxeyO2RyEBE/CHEZ4COYDZBYCXAzLIKFeAcxIJ0aETyeVc+4viL602SRUQdjFog0GKQZoI5mAPnDAKBC/spWmLqQoC0X4FnnKBMQzleC9/T+KZ9JBJMn5aI+79QPvtfkUJ57EZvFWAhQJzPXF32i+LGCaY/7c6yPXPDwww/XGbk6rcMIMjBkIiU/ZWDUteeee1YizvTAczFL13yf94B3pZ2dotVXX72u/YGpNlExf2fClJkYv6kP3IgyzzlLpRz64n7nnXeuLbqLLrqo3jMW4HHc4QqBIRF0GrL2NRgEMHHmSAWut9tuuyLKQJTHVCmFGj3HHQCSEBITBtH2wQcfbIceeuhoyb/h+QQ4kyMxV+Y578s3c5kAVfLlJqBfjD/uzwRE8nNIMQCd5qcQpY5ftcZGiuipHnna9ibc2vb6N+8LRPinn3569K6Ve1BvUpDSS7hJ5B68H1H5yzblojYyPTPe7zzjNu3/BuZOkUiKcwezjmQpEfKcDVA9lfKPfC5Tg6RNQE3ahiTkZOlpm623XgBTpywwTGSbIIm4tT81+i3K51cvuOCC0dZjA9OeECLBl0CmG1Xdf//9dQbK4PitnRGOAIQLJpTi6F2fq4urAIFFm3QdEX4rJCPf9cxE6gviZAyCC8swIdb2cO6559Z5rMDjhBH5vyBgMCnLPSQwMYNXhiTKRBzSEJPojfS4C+rmHrJTD9q69ixXkQlR5vAcVUp17D4l2lP/eIjs3Ef+v5CLIozPpBIJuoEiycFnKddGhE9CD661RyrzREyeC6GuBRT5bsogLkDe2JuD9ktiMDBFBjvssEMNjuM3OIpxphQ+E0kG7D5ugmnKE3NPhb3pUc6GluGljLJNSLbtTGT+KLZfjLx7cIoMHnjggVJYTBEhuRdhqQeSCYj+CM69g4/0DHU5kNZLoHr3SDRhmYAovAsMXJHBuuuuW18M+bQMmjKpjSoRyo8pT/ARnBJQmLD6EA9RYe+ZmqNGz5511ll1PR6MvHfwigysKvg9618DzRJOmQEzbSQh2UFNSMk9fyiARJmQuhzUmz9ogC5IDKaMIoONNtqo1CZFip8UOChxnXXWqTaWe8kx1WWjN2DKVGsCPGeIyrgF4DLy73S6wJRSZGCDl6pEaqpz5g+pzDoayTZllalXzucpB+UIpD4Ept57mDZ0SWIw5YiEZ555ppJkZt1LFkXl78ORIoeM0pCsPfCpyvNsL84888zRq24x5Uy7F3ZqfKiS6iCNuUvYESahZ958nmSeKSMtwUY7yDoeuvxq2AumPaWJBJuz/hY9G6/IRIw/b+EfwXLP6ig+kS/NJoTzGWecUdcThVmCSOATpUYiswTaHiYymW/qBSbEOlOmtnDYYYfVeSIxyxAZ2Hy1Bhc45JvJI20+jAyl2kjqmTqceuqpdZ5ozHJEUh5/addIDukvfKVH/GD+EYA/tppszHJEBvmcQXkUyj8yeRjEf2EzyxI51YDHKZlHzooYEtkRhkR2hCGRHWFIZEcYEtkRhkR2hCGRHWFIZEcYEtkRhkR2hCGRHWFI5BBTCa39B2Xs3Y4lAAQQAAAAAElFTkSuQmCC;" vertex="1" parent="1">
          <mxGeometry x="-93.00000000000001" y="-327.7800000000001" width="82" height="83" as="geometry" />
        </mxCell>
        <mxCell id="j9suDuCbf65Sm_-P19-l-12" value="" style="group" vertex="1" connectable="0" parent="1">
          <mxGeometry x="30" y="-504.52000000000004" width="48.953210010881406" height="105.44935805991446" as="geometry" />
        </mxCell>
        <mxCell id="j9suDuCbf65Sm_-P19-l-4" value="" style="shape=trapezoid;perimeter=trapezoidPerimeter;whiteSpace=wrap;html=1;fixedSize=1;direction=south;fillColor=#dae8fc;strokeColor=#7EA6E0;strokeWidth=2;" vertex="1" parent="j9suDuCbf65Sm_-P19-l-12">
          <mxGeometry width="48.9532100108814" height="100.42796005706134" as="geometry" />
        </mxCell>
        <mxCell id="j9suDuCbf65Sm_-P19-l-3" value="$$\varepsilon_{2D}$$" style="text;whiteSpace=wrap;strokeWidth=5;fontFamily=Times New Roman;fontSize=24;align=center;fontStyle=3;" vertex="1" parent="j9suDuCbf65Sm_-P19-l-12">
          <mxGeometry y="5.684341886080802e-14" width="48.9532100108814" height="105.4493580599144" as="geometry" />
        </mxCell>
        <mxCell id="j9suDuCbf65Sm_-P19-l-13" value="" style="group" vertex="1" connectable="0" parent="1">
          <mxGeometry x="26.8" y="-339" width="48.953210010881406" height="105.4493580599144" as="geometry" />
        </mxCell>
        <mxCell id="j9suDuCbf65Sm_-P19-l-9" value="" style="shape=trapezoid;perimeter=trapezoidPerimeter;whiteSpace=wrap;html=1;fixedSize=1;direction=south;fillColor=#ffe6cc;strokeColor=#d79b00;strokeWidth=2;" vertex="1" parent="j9suDuCbf65Sm_-P19-l-13">
          <mxGeometry y="5.684341886080802e-14" width="48.9532100108814" height="100.42796005706134" as="geometry" />
        </mxCell>
        <mxCell id="j9suDuCbf65Sm_-P19-l-8" value="$$\varepsilon_{3D}$$" style="text;whiteSpace=wrap;strokeWidth=5;fontFamily=Times New Roman;fontSize=24;align=center;fontStyle=3;" vertex="1" parent="j9suDuCbf65Sm_-P19-l-13">
          <mxGeometry width="48.9532100108814" height="105.4493580599144" as="geometry" />
        </mxCell>
        <mxCell id="j9suDuCbf65Sm_-P19-l-50" value="" style="edgeStyle=orthogonalEdgeStyle;rounded=0;orthogonalLoop=1;jettySize=auto;html=1;fillColor=#ffe6cc;strokeColor=#d79b00;strokeWidth=2;" edge="1" parent="1" source="j9suDuCbf65Sm_-P19-l-39" target="j9suDuCbf65Sm_-P19-l-48">
          <mxGeometry relative="1" as="geometry" />
        </mxCell>
        <mxCell id="j9suDuCbf65Sm_-P19-l-39" value="" style="html=1;whiteSpace=wrap;shape=isoCube2;backgroundOutline=1;isoAngle=15;direction=east;fillColor=#cce5ff;strokeColor=#36393d;" vertex="1" parent="1">
          <mxGeometry x="107" y="-496" width="30" height="86.8" as="geometry" />
        </mxCell>
        <mxCell id="j9suDuCbf65Sm_-P19-l-58" value="" style="edgeStyle=orthogonalEdgeStyle;rounded=0;orthogonalLoop=1;jettySize=auto;html=1;fillColor=#ffe6cc;strokeColor=#d79b00;strokeWidth=2;" edge="1" parent="1" source="j9suDuCbf65Sm_-P19-l-40" target="j9suDuCbf65Sm_-P19-l-57">
          <mxGeometry relative="1" as="geometry" />
        </mxCell>
        <mxCell id="j9suDuCbf65Sm_-P19-l-40" value="" style="html=1;whiteSpace=wrap;shape=isoCube2;backgroundOutline=1;isoAngle=15;direction=east;fillColor=#ffcc99;strokeColor=#36393d;" vertex="1" parent="1">
          <mxGeometry x="107" y="-329.68" width="30" height="86.8" as="geometry" />
        </mxCell>
        <mxCell id="j9suDuCbf65Sm_-P19-l-41" value="" style="edgeStyle=orthogonalEdgeStyle;rounded=0;orthogonalLoop=1;jettySize=auto;html=1;fillColor=#ffe6cc;strokeColor=#d79b00;strokeWidth=2;" edge="1" parent="1" source="j9suDuCbf65Sm_-P19-l-3" target="j9suDuCbf65Sm_-P19-l-39">
          <mxGeometry relative="1" as="geometry" />
        </mxCell>
        <mxCell id="j9suDuCbf65Sm_-P19-l-42" value="" style="edgeStyle=orthogonalEdgeStyle;rounded=0;orthogonalLoop=1;jettySize=auto;html=1;fillColor=#ffe6cc;strokeColor=#d79b00;strokeWidth=2;" edge="1" parent="1" source="j9suDuCbf65Sm_-P19-l-8" target="j9suDuCbf65Sm_-P19-l-40">
          <mxGeometry relative="1" as="geometry" />
        </mxCell>
        <mxCell id="j9suDuCbf65Sm_-P19-l-43" value="$$\mathbf{z}_{0}$$" style="text;whiteSpace=wrap;fontSize=15;align=center;" vertex="1" parent="1">
          <mxGeometry x="52.819999999999986" y="-542.0000000000001" width="138.35" height="56.76" as="geometry" />
        </mxCell>
        <mxCell id="j9suDuCbf65Sm_-P19-l-45" value="$$\mathbf{y}_{0}$$" style="text;whiteSpace=wrap;align=center;fontSize=15;" vertex="1" parent="1">
          <mxGeometry x="50" y="-377.00000000000006" width="150" height="59" as="geometry" />
        </mxCell>
        <mxCell id="j9suDuCbf65Sm_-P19-l-46" value="$$\hat{\mathbf{y}}_0$$" style="text;whiteSpace=wrap;fontSize=15;align=center;" vertex="1" parent="1">
          <mxGeometry x="217" y="-544.24" width="150" height="59" as="geometry" />
        </mxCell>
        <mxCell id="j9suDuCbf65Sm_-P19-l-53" value="" style="edgeStyle=orthogonalEdgeStyle;rounded=0;orthogonalLoop=1;jettySize=auto;html=1;fillColor=#ffe6cc;strokeColor=#d79b00;strokeWidth=2;" edge="1" parent="1" source="j9suDuCbf65Sm_-P19-l-48" target="j9suDuCbf65Sm_-P19-l-51">
          <mxGeometry relative="1" as="geometry" />
        </mxCell>
        <mxCell id="j9suDuCbf65Sm_-P19-l-48" value="&lt;b&gt;&lt;font style=&quot;font-size: 14px;&quot;&gt;MLP&lt;/font&gt;&lt;/b&gt;" style="rounded=1;whiteSpace=wrap;html=1;fillColor=#fad7ac;strokeColor=#b46504;" vertex="1" parent="1">
          <mxGeometry x="166" y="-473.5" width="79" height="41.8" as="geometry" />
        </mxCell>
        <mxCell id="j9suDuCbf65Sm_-P19-l-59" value="" style="edgeStyle=orthogonalEdgeStyle;rounded=0;orthogonalLoop=1;jettySize=auto;html=1;fillColor=#ffe6cc;strokeColor=#d79b00;strokeWidth=2;" edge="1" parent="1" source="j9suDuCbf65Sm_-P19-l-51" target="j9suDuCbf65Sm_-P19-l-57">
          <mxGeometry relative="1" as="geometry" />
        </mxCell>
        <mxCell id="j9suDuCbf65Sm_-P19-l-51" value="" style="html=1;whiteSpace=wrap;shape=isoCube2;backgroundOutline=1;isoAngle=15;direction=east;fillColor=#fff2cc;strokeColor=#d6b656;" vertex="1" parent="1">
          <mxGeometry x="275" y="-494.4" width="30" height="86.8" as="geometry" />
        </mxCell>
        <mxCell id="j9suDuCbf65Sm_-P19-l-57" value="&lt;span style=&quot;color: rgb(51, 51, 51); font-style: normal; font-variant-ligatures: normal; font-variant-caps: normal; letter-spacing: normal; orphans: 2; text-indent: 0px; text-transform: none; widows: 2; word-spacing: 0px; -webkit-text-stroke-width: 0px; white-space: normal; background-color: rgb(236, 236, 236); text-decoration-thickness: initial; text-decoration-style: initial; text-decoration-color: initial; float: none; display: inline !important;&quot;&gt;$$loss_{3D}$$&lt;/span&gt;" style="text;whiteSpace=wrap;html=1;align=center;fontFamily=Times New Roman;fontSize=15;fontStyle=1;strokeColor=default;dashed=1;" vertex="1" parent="1">
          <mxGeometry x="234.68000000000004" y="-313.28" width="110.65" height="54" as="geometry" />
        </mxCell>
        <mxCell id="j9suDuCbf65Sm_-P19-l-61" value="&lt;b&gt;&lt;font style=&quot;font-size: 16px;&quot;&gt;&lt;i style=&quot;&quot;&gt;Stage one&lt;/i&gt;&lt;/font&gt;&lt;/b&gt;" style="text;html=1;align=center;verticalAlign=middle;whiteSpace=wrap;rounded=0;" vertex="1" parent="1">
          <mxGeometry x="56.82" y="-594" width="119" height="30" as="geometry" />
        </mxCell>
        <mxCell id="j9suDuCbf65Sm_-P19-l-63" value="" style="shape=curlyBracket;whiteSpace=wrap;html=1;rounded=1;labelPosition=left;verticalLabelPosition=middle;align=right;verticalAlign=middle;direction=south;strokeWidth=2;" vertex="1" parent="1">
          <mxGeometry x="-100" y="-559" width="449" height="20" as="geometry" />
        </mxCell>
        <mxCell id="j9suDuCbf65Sm_-P19-l-210" value="" style="edgeStyle=orthogonalEdgeStyle;rounded=0;orthogonalLoop=1;jettySize=auto;html=1;strokeColor=#67AB9F;strokeWidth=2;" edge="1" parent="1" source="j9suDuCbf65Sm_-P19-l-68" target="j9suDuCbf65Sm_-P19-l-70">
          <mxGeometry relative="1" as="geometry" />
        </mxCell>
        <mxCell id="j9suDuCbf65Sm_-P19-l-68" value="" style="shape=image;verticalLabelPosition=bottom;labelBackgroundColor=default;verticalAlign=top;aspect=fixed;imageAspect=0;image=data:image/png,iVBORw0KGgoAAAANSUhEUgAAAFMAAABTCAYAAADjsjsAAAAAAXNSR0IArs4c6QAAAARnQU1BAACxjwv8YQUAAAAJcEhZcwAADsMAAA7DAcdvqGQAADAySURBVHhe7ZxpkFzXdd/P9Dr7AsxgXweLREpkKEoqitCWSDEjR7KkchbJW+xIFZWdKqeSSpwPqkRGnFRUrnKSshM6JVtSUiW7KonWULYsO7FZSixSNmmJBE2CBEkQBDAABgNgMJh9enom/9//vDsD52u+5va8fu/de/Zz7rnnvu6ennZv3+bGxkZsbmxG1HqCV61WC/q43tSL+56I6G52BRdRFxzgEbop8N1uXtdrOm8KH4DEj83N6IEAVDbpM0Q06vXEy8Gtxi18gKtDW/jGFU5KyFXy5kCeLjoIrEfIwDeMBzx0wK9pXHLoyk1wmxpnhDfElqYaB194HkfuygqVCObBhQkB200YDdh8hhCxek8aAsEMqiH6uhvd6HQ7ZlqERVuY1QCS4TY592DE7pYhQVgXDGaGQRE0JEC70RCJNEmtVheduq5QAMjKEKKHwslCjtQgVC2d5LLs4tGRQ5DLsugeBwALvS1HiA40cfa6zpuSE93EOerqq/UgD3QyWHAA79BbM336kVMXJic9JVMNGuoDuqfZaoMhYFyTngIeGehDmRxH9IwAxlHGQGrFgzDa8rZgawjFvTpgmooR6XWx2lCkSzkkg14yrDCBAqcn1nGsorkoWHgB1VRkY8jESDnBwZmAWEH1c6YRrUlvmxeG6OreXbrvER9u6OtvtWKlsy6aChLJYAAA1Zi5zEg6uWZMdyah425lamYMIooznCO0iisEuAZG95DF8927o3J9XX26VGMMpsWgnIlAG0aHI7viYliNg0vENupVhEkh4LnGtJ3uumkJwyfgjWOZkSjji4aBMRA86MO5yG7+6jZdMHQNFG8rHc1GXVhVmvGzEf3A5AxCTrQxsqaGboC1L8V4vZuRsy6B5Rg1opJwTzjdigCCZX7B/41624QRH5owaEqxVr1hPI8BKzoF1/jWAKIcimBRIGKgQ1/mb9Fv1KuZ0SNempZEixuj5R1ScqJ4ZBpKeVG+YfdlGnAK0d2qHI5gJJwm091ibEZTvGwLXSO/6epIRyr1yTbIs53T1e9pjpK6J2xLvkxUBMwXvXgBJRzWakBgCAsmgQxU6Ze5DtErkyi/FFwbwcZiFKXuahpiMQTXC4voEJGlbU9tGlNNKUMylAVUQpp2I1cU62N0hlEcZ3BreXMGkI4wIIaHH7YpfQgELPpspyS/VUdq4HzqiJQAxEhHXkKwBgIKCA9wzxjEQMgcaNPKkDrLkOsoL7rwgGFZUDBekygQNI3IzpwnGhvKRTgPehqzaRnTDfjoSsrgniixFBpfrwy5blq6oM8zhmtLmq8u+nRiw/3bBtObeFKV5OwgnTk12fHiIhiCAzTSArPAhoQBh/qIYi9ygoI+jjdeS5HpqVcxwhyoxnUmfY2JMQ2CZuC7bOA1ENR4iCMcvK8+hPR0NX08m/AWyg1+eZ1GzutUgHsckSknZWERqWt1VerRi+izwcH3qC9MEl5UElbaxkpOMqMdzp0N6sBJh5GDEa+pIFhfl84VHTxKcCB75v6kZwMzrBN4tfQlqxrlgRAIfaJGBBC0CwO9EN5TBiw1q6BQrNeYuhkdGJqD8iO9aVA3LjsaA4/phKEQlWlLgyrRAxwszAZ4HTaq4SNWJQ/RhHFBgg/KFPnaWoFrkqmDQ8EBxlyh7yVPV0ATYZLJBu1RFGeZQ7zZBpQ9GgemKz3RD2PimGYj5cHp1MqpnfTKMkJolZVhSFRVxo9Wo2XWeIGDvl4JLHryMsaVcvIkuhEF4maloEkU0TIaEVSR5WhCcA/ZaJk2qms46IyQKOlShl7TRwamv3J3FVHwAYdr0hALJimElr1cwDlnCsb0NNcLWswqHJaGZJTDSDYkY3aYrqlFubA+jNqR6ihsmu1eX2JxM2BaCKMpoK1imD4TFSjIJkRcgYojCoNsGD3vq+ld3ZdpQUO9NGE2+HBsaEqT8IHkMFXh4uCcroVG4ZdQGD7tTsTZJWlcOQ4YDOdWkQA7Rcwo9WKnPAsdjM6Qi3F4C94zruKN0YnoEmS5uUBv6OkK67tkEBlySccLRBbL3tWYswyjE0JzW683HZ2SASoiCvmcbhiRBgNEw/Ol3IFW+lrjVYQ5Ylhc1C2OqZRoIJcXIPgKjoIFiijHVC70t1ZpHTn1sBPuTkOpVDXfDFKQgIRo6sY0hwC6GAd46wYPpMMyCjLk1RhlVLoNGGgJPUsjLKxBEc5uGsg0hMzopCONSqu8KS/aAXq3NDROggPWk6bqzuZB6+NpZ+0wRkYF4zgFIxKIjgbRIU91vBBxVplVyQMhlDGm3nBYpoZsWzLo8HQVD3iSDqyT+nF81tkpV1Ir72bv/rsbciB/QqScNQgBnNs7FMrS1oTUxxiNEsWJWS8WJ4hnNOAbIgwjVIxNE2HUoc6maELPHrRUKKiXDZmR5HyrlgaFfu7CZKqoax+/SsrRa52pKBq8WHWJHPjVJRO6sFggE5iws5EEj7sJFagz60gB4GPgQo+IA6JM7xI44HKflQlO5B79tejKwfACtqdBaWSMomhpEJSgVR8KU+Nl1NCTBD21q5wBDv1IhYkNqxeCwqylqYEz7VHwgC1Nl2lINQmMoJ6mkgG6SYnG4iPjrme5BGLyEQ8iVnLa5SgpgxU8+LtOJmrNRiN2AukKelWkWhGil8vEtSGFS/Bwj+MzjTFjk45nWUOCIBBDG4SfrovoHqrOFPQ2rEBK1PG0BTi8sy2cBMK4YOqttim/CQ9BeVqDUlkOgSPQZJJnHfZw9viauxKt9Ektn3MmEN3AZXQ2FcFlpm3zBI9pCBb9utZVXytzdUdGyFTFuN4d2Wl8ejAi5R+6eddkrNSXawycM1n8CBIGnGQFI3SDpleo5xqOBDf3EXEm412G1ZNxpJKiQh7TPa2HKSpATx26ENKGZSXEqOnhBMcwBVAKKp9tNRyA11UDM0pJ5JwoeKZrTr/cgfg5gmCKg6Dn3OrLNBK7NVbi5bVMa45knf1SvyNNcEBDh8W061ILbI0QLLIRMBlSaXhY9tSbrU3nDB0IBpIjrwgkFGSvaz7Qg9EtOIxNOHG2z7T09N0jvGFY6DrQGFGfnalIRmmMhjPglNO7GI8Fh4VlmyLvzAxyaMqLo7iGSUVDgqfz02lpMmrnplOWZ5IqEq/o6qehm+UTYLEJwcKit6Ut42rEI3jgMOIZ5Cmje09RU0mCICFUo44QOe1I+EylUn6AgzOABJdxrpsSGEGkir0LsZoUtcM4yzCeOqZcngswXclPjHe1pevE2vqqebGwQBdZmc4uqdwHaaQUD5Fm94YRyYW58IDDXj+DANres+sasbOCSVnySZNkQkaNOWWILuOZvnLHZqcbJgMDHJyttCKjSChMwPTB+Rl9CJZIrPCiZzhomAhaqJMpk8mYA+OKuv7WJDCgLTEnVdCyGMcpCJgkgae+ZNeSU6oba2urHhsZbsfEjh05s/zUKWLn2HDc88bj0WrnbgRlMFnSQ9ZML8ivobx2hGb0w5+RDIaihXZ1TaUzy5pGA4YHwj3YxzDYInWFp2eSEDkwNLNGutROQwxkCMHK97rISI2YGBuLucVFEe6JtohDECPzwtMk4BSAKK8e7YsAL7zsiKPLvWClSnDi4xD3pRDuB7bR34of+cAHY9fYeNy6Padp2YmJPbtiYt/eeMPkiTh+YF9cuHrd0QsORmQd9CzTPa4l+gfb7VjtrImD9Klkh76jz3yJ0FxCcGbqJAMKpjiqI2IN7Vby2YXoyKue4o5q6GJ40cmnRhpSR5YNREoJbcQyS6GmGWy0SvMiiBug2e3miBY+XXh8k+hDCd0zBeFBYi9oxbw2Rl89fu6nPxFPPPV0HD5wPJ55+sn44A+9P0LROLFjd1y7OhU378zH+upqfPeJ78WNuXnJkhFDpHiFl6JJUm+WS2dymc4pN2fKL2Zd5kwM1Gy2lAbWBMYUzqjOJlwiVfpSsQL9fzdCyhflU0KmNl2OLggS9gJjm9VQsrZHsQq9GBI4M9Khc6n9fNIZoT3GfXWdhhQ/0OiuBMOQbU23T3/q52Nudi5OHDoS169cjBNvOBn9I4OCUK3aasb+gwdjoK8V7d5WvP2hBx0IyGtelkdN51wguebIgIA/D2mgRaQRw6SxsmmwIWmCc3C5mYBpsshxzcYFGs6d1kL0NGEd3jDGM/kEKHfAPTKajauGUXNqZ4TC3GWHIqI8OadxDUrCqa8yngVQP1A81rOw7t2mV++vxz/7h/8kNjSvWHH7+wbiwftOxkc/9EhsqEhfWFiEg+U7MTkZ7f7BePncea/2KOmpJog85/awzB6nMBubSiR14t06SYftKY5RU/akpubUYMpbtXLXT50xKqEmWBETajJJAD7zYaWTcBrB0LCALatsBi3C5S6Gh7TgFYI4xI/XJE9LecX81YetgaMOhD4yQjUFJOcIob8W/+rT/zxWRPfSnRvRNzAam51u3JpfjakrU7F/z87Yv3sPqFauI3/cnL4RFy9fig+9731x74mTokNxDWXoY4CMNq7pzoVyO4I5ZURn6kEO9HJeFRb3ZUFLurqXMp61nurorrSosx3RrLdOM0bW8N5cXm+ZaN5Dg22gldc7kVT5QkZKRi2VKq4ETBIYwUsoYAB3mSIHZdlhQlYAWjxIbg7W41c/80tx4eKMFpvp6FnviekbU9Fo1WKluxJTMtrkoUnPEhYHhP/N//rlePaZH8QPP/KBWFlfiZHRYZfSt+bumA9Pd4ginJkyI4P0Uz93uZdH2tJkeAnFfa7YiubqGnxg03hpCw7SEjMx6YpPfm7OEO/JlkPDQkylec6Hd9nDgli876ZxvFOYkSZ45O9cqz6MzYrNAgRsUYwr7WWjOVCPXzn92bh6aTpuzt6KhZXlWFmZj/vJk4OjzCxFsxQSOZdqMuU3Hnsszrx0Nh5553t5FuadmEd0fv211+L8xUsypFhgTLV8ICIXYFvLmv2WQXJ6sbJcaTjswD2zLKOTByx3b1KqxmVRR61GHZi2UY2lqHTupDRAPEeTLuVFThiXfrO1x7hl+iKoBBQQDxgYYBUkUteU0HNlxYMg6FKEBgfa0dm3Gf/5N34zbl6bjaXF+XjptYtx/vKFeOtbHoz20A7z64hPrckMkFN1/NbXH4s/lyH/+l9+j6yEw9TfxCjIrwW/t88G0yWMMpIlC7y9UAmlPKJzxKmiwEmGVwB5glvOsjGRHtKPcQzPzCWYKI4SiRqzWnN4RtgDAP1qFNZr1YIBYGHCOEJZTMEgPFCs8G0dWTIwpDHBsPrzFRhJWtFQ4wJFpRTi/c/Pfzf+1t/4ybg8fVFljnY7ndvKf39VBXQzmj3Ki1ICddakLIvM6y+/quNc/NSP/micPHpC/DOdNJQ/4c+nni+++rJlsJWJQFuR2YQoOJ4HLdpCin+bXUAKrZOoYWz1gw698pTetNEXJ4gW9wQKtgCPLS9R3FNvtODqcMaT5BvKG8iKt4HxRIpXmUUES3lEM9lK/vI4DjobrNoeoCVzcmRjsBG//Au/GANDQ/H0mafj1z/3xXjvu0/Fux8+FRMT43KEIkqzwgW9ZBKRuPDy+fjS174cf/PDPxKTk8ejqxWIVf8HZ581X9rj3/uz6CwvbfO1IXOMC6covXIBkXGlg5+9GggibFyI1pyJjnDhkKNLagOXg1s/nwXbcI5cLQCKIPKKIWRER6boO7eoC8PyDktWeXNSM7TlkjN0zoQMGfIXCnFdXCBBVeC1h1rxy//0MzHUbsX//t4fx+rcarzzXaeiZ3A49uzZLU4kflZr8lXL02fu+oym91fj7/3dvyNjfjCaqjVbvaoN27W47433+OHx5StXgg9RZAqxIt/JCOJNMCETBiLquEY9+rnhCZbuuNFfpoNibM8wRtSJnvmRNjk3McDhiZrp6qi3mq3TyQD7Y7RNF85Zi3Hc1WACYb0YMWlHDlM5Synaxgbf0UnwIhhPeFrDrfj0P/iFmLs9H8+++Odx49admJq5ou3qUPy7X/oXceT40Th/XnXj2npsanFC9j958qn48jcfi0/+zI/Fex56p1bMRowMDsadhXnT3RD7dnvACo72D8XV69NpOPFtMNMsG8oKgPBRyyfm2ecZ6aaz+BEsGZe8ZyDkI8acqbRcXOU40+G+oqV2mpWYIz8+7dpzDJu6DhByBcwYTWb05ZnoKat519/dSSNSNoCLIftH+uIffeLn4saN2zF7Yzqeevk1rS7L0RgdjZ/98Y+b4qAi7t573xTnXj0vUhvx0pmz8fhTT8ZP/8TfjgcffHssaWov3FmInTtHo0+7n8XF5VhTrq2x0iKYDL1jeDCuTl9DKpkRo5K60iysB9y3FE25CFXGQFadM9eiBWfKK6oA3VH+VC/skLqpnzOw1TjLt+pMMTQd3tJgPktCrJ6JV2EsuAQxsMugzCUcCccUr4bNtNlqRP+Okfjkx34qZrVFpPx56rkzsWOgFUcOHIxHTr07NuT5uYWlWJcjO1pE3nHfm+Jbv/N4nL96IX7+k5+KN97zBhlxyfz6lE9mZ+dV1PdpweqqxtxQTXo9xsbGYuralRjfuUuRveZt4eqaDC0Z0CHzWsqWhsyoJNqQvrxTweBIVwGVwTAV+qEWOCzEOIU+B5cG6ppJMmb9tJUWMsbC8kQZU4z79GoVhaYpdGFn+aRL92FIyihC391mzT76HhmCenDmxs1YWbgdf/bC89qtTMbJ48dlkOG4JQNPDA8LOhP9QK0dT/zR4/H73//j+Mcf+7gcMeEpzZTtb9djWkY9sn8izpy/GMqa8eqF1+PkocPx+tWp2DG+U1Ha0XlcKzx1MU5aFFW9JGhX0xw9/S0OCZpPxVAg+21ibm22VCT34EQijlDqEFyqjIPAzFlNJzYzIEaksAUiWeisa6YKdw2VT6x03snwEjycWb0hksY0TTUxUufErvE4cfR49ChSZhQ9f/j0c/HwW94Se/ft17Ysn3YrW8dzr7wSy6ur0V1ZicuvXojT/+FzcfLIsVhQ9M1oWq+sLEar3YyVtW5M7t0Rl69dV2QPx53ZhTi4f6+iteat5o6hEW8Edo6NxObIiKZOQwsVZVBKxedRRCWLBvqhR4k76tnUh+XEZpDudy1I6mem+qMSvdAXvTEqzcZttVqQMIFkSasMCSW1jNQ0MttOrsxAGJQ6aywYYuIGA7127ZmIk5MnYnl5OXo1PV95/fX40F/7QPS0iYj8aiGrI/t7P5TVsXJ7Ib7x+78XH/3IR+J973qYOaWCvRlLSgG1em+Mj/bH7O1ZwfbGWZVKQ4N9MaYq4PrMtejtH4wfvPBcHNq9Xzl5Robs0WJ2QWPX48VXzssoGUHIzTOCStCMVDuVlqYtSxYaEhQsaAZGXxmVwGOcp/+2A3bSqd5stE4TcTwAhQSeYbWDMXtbLM6jekg5JkWYArYkYPjkDmfbGX197RgaGNI++Xa0VOK8eOlyfPzDH44NKegvjgIoz0CTiMfTF7QgffuJ78Tf/5mfiFPveMhROCZjzcnArXordo4PxtrckrzfG5cvX4ue/t7Yr8i/cu1yHN97OJ56/vl44+TRmJu7pdW95adODW01683eGBsalFFnxLL6ggIGcNsOGJvP+hIo1Zj7Mn759nLqTHBBIucvYxgUKvV6s32aTwOTQPIhdzDsEkJnwrt8HOoHvWKKh1y06mBhwKCMg99VvlpZXfbXsOe0Yv/khz+iUie3ZpRg0HAxLHQi9LtPPhHPnjsbv0J5dPhYLGmFxiHLq2sWZmhkIG4qVw709sfMzevCb8Ub9hxUenghjhw6EWfOvRiHDuyJ3kbbAgwPDcfFaZVcO8Zj6vrVGBvdYX435dwSBORLdjhZ9sCG/jRkFuPYgCNtAJ53OhW+PwuyUbdhXRrBiDvsDJCfuGAcWz+jtUwRf1pYMUtPcpUPBZw3TDYFamrv/OMf/ahqQUWjaPtPB7CUJ10tFr/1u9+O27evxxc++y+jb3gkukoZw319cWt+Pga1z+5TBN6eX4iJwZE4M38jBuv9cWBib1yZej2Os/BcuRi9I4NxcHR3LM7fjJHRiXjuJS1ycsprly/F4QP7YqDNfn0jZm7NxaochI6pX0abXzp7TbC+qYXfGZfBMskRAPlhnetynVNb7KdZ0KBod0dGXT560xiG0z1jGBIkjFk+faQl84wuE3RDGB44tOOR979feW1YKUT4Gma3QapoVDnzq994TPl2IX72E5+QIG2t7oMpg2bKgHJlTcacuTUTg/0jsbQ0H/v3nYz9I8MxNXU59hzcF/My8ppkOzK+J85PXdD4kXjmhWfi0MGDWrQ6MaA0wS7q9vxt75LeeHTSzz+JeHTxZz1qIuGIzN0d+mf0cTDY22pbb+CsOmMgMq6r7FaweVVWy8+t01BZoPPoixUa0DSWp4JHcjyjFQGozdzlVpNB2oPKVZpefPKY/t70c9IW8Cq+v/Z735JSy/Gpj/2Yau2WFpnlWJqbE+V1Tz0lvZjRNrK3PSyKG6oZFRFr89oyXot9k4OxvHAnFlZX4p4jx+NPXng2Dh86GC+88nwcVO06MjwqNZRzR3bE6spyDA8MqMhvR+9QfzygGpbat0eLG9FVVuVUTHLKwP7sK/9s5fKZOQ7gjMGdazkElPW3UwefTmImBt0nZZSqdQExeyfJmikGr7lYT8OTT3N1pFWpQDuRe44pinbtzs2AQHEKAjS1//tPX/lKrCyvxDveer+jqKfWVIR1Y13GWVhdj6GhAU3faUWTdjnKcxjk4P4D8eTTT8tJE5rq6/GhH/6wxu7Et7W/f899D8SVmaux1qO6VtH58sVzcc/hw/5Elcd2733ooVhcWnIlcOjAIf+2Z3r6ug1D2sqFRjeSnfO6ZKGudQipo+W0l6FEUe9vS6u/RC842FD9zdN+FkiIp/kMQHItZQBGzp+N6FJj3tibUMYoH+RXmBZoVEU457n5udi7a8IC+JGc3n77q1+JersRD7z5ftO/MnND28MxTzHu1zqrMavacqDZrxw4K0fVYs+eA/Hd739fNevh6G+2Yn5pQ5E8H2dvdePoRH+sdlcVuRHHVBa9cvHVODY5GTO3b+N5ydpVQX8lTt5zTywvLmg7eyseuPdeXS/G1Rs3LCdphXUhAyTXDS8uKG5d1avLNCBRqKCpNAaeMWxWbytnAsQMB47BXN/yGSLIfDUmCTHOSDKlD6I95NYqNcB+eWWV/OHrmzLM7omdUe9EfOnrX4/h0cE4euwEZaD44VUWhluxf2IciWJxeVUG3YyFxXmZoSZn7Iqnnz8TRzWNRwfaiq47cUAR/9z5s3Hq5M54TYZdV5Qf3380zp57Pg4Jbvb2HPV69PYNSJZl6d4Tt1QFvOut74gpna8rKt/2l96ivhva3s5lgNhYaZQ0pHSh36t12sMG0zURmo0x3qsxpjlTMw2UaNT4tNwyMob1sw/U8qiNBE4vC1FaOpnSWDVhQPfN6Wvx+JNPxuTRg7Fn74Foi0OPknq7xfQRsDw5rSgZGBiRQI2YXZhzrbhzaCxen7oY+/bs1VTDMfNx7OBkPPmDp+PNJ++NazNz8ZYHxlXLDscPnns23nTvPXFHEVnXrmd+ccn5eXhY9al2YEzl81r5T73jbTF15arq06vx8H0Pxv/6/tMyJJFUJM/ciIIOFNGwVrxx1uEguktff09fs85FO/kgkRyaes9VjsSKofKJM8bFU/ktNgzVJ4OUz0YwrutNXXi6i8myImZFW8Rp7csfvP++aLSpA7W2DA7IYIsq7Eeis7Jk2H07J7SX740rMnxvX6+2i0Mxr3y5b9++2OisxcLyYuwb3xvfPfNcPHT/m1SX8hGvVv3uWKxszMWB/W+K66ope1SOIU+7UfM3ORTeWnC0Gmu7Siq7Mn0zfujdp+KV1y7Ef/zK12JtSZGrF7oyO4EhNnLDQuCgby5AaFXe+1ot7d7YrKTdsI2M2czSaKtoyumJQORLA4kgxiJGuaex4q2ud5xLaUxXojfTAn0Zzfm9zlrs3r3bSZ3k3lnfjF1a6edUS7ZEDkU2FeWvK1p2jQ6rYJdRtSXcJQMvLS8oV3dcW/7p88/G0SMHo6Zw3oiOVvLD8QffeyIa/UPRWZ2P3UPtuKMSimeebUULitzQVpSPJwb7+2N5bTU2kKfdH7uiEd96/HHpiT6pE0pSY1MaYQPrLN0Zz+8W5XTGDi6fgHH8Ai3jN1v82oIbPsUr+1TuqTPZJTCcxO09nbFn7ldzSlBO+Mk6pM1cV3IzEBTmOIan+fe/+T5XCozwqGF5rRNXr16N/sGh6NfU3KeFhqjEMXv37Nequ+w6dZ8ccfaVV+INxyZjWNN/Vbz37zsUf3rmmTgxuT/GVdAjww3t0a9evxWDYwNxcO9+Rf2aYeeVk/v7+uXEpbizsBKLKt5/7fNfdDorBkIPgodPHPx7SglPzbtePZ+lGUY3aEj5tzWG1dWU9pQzbV2I5ZMfAOgjhEu0wTDrz6SMefEWRiL63CdYHELiBo4IJWVQy1H0Tikv7pnQ6q7X7ZuzcfblVxR5y47yVm+vP/Pmq4hjw0Px+vQV1amjMdo7FM+/di5OHjka62vLsSJeu8Ym4tmXXoyJvTtjQgX9imZIX2Mzdo/vVhm1FtdFe01wO0dGVQKvavY04o5mQaikqask+dePfl66yJTSNR9g556dtYa+jL2MPA1adnSlB4PycKfLrzMqKL+0A6o+N+fWeJWnuC7RpmuiTf3OjRUTzJ/byrzPFRFcmNOPJ9m/UzbJERKWhw89VAZ6kcv4nmTh21LEHTl4OAaHhlRrLseJI0dibGDYtCbGd6kcmovRkRHl1t1+djk5eVRTkskVcsiq9uGjSg9NLWJDcXNmJl569YIWuz1xcPdO5WdtCLSq37h+Mx599HOxsLZixyM5M8z66o7nD1y5ypDRG8q7a0opaE1goSsHgYa+3BFgrlV1rnJm7jkxJFPZ1N3gkntWCDBOI296SmzlF8TCO8CkeTEkV3wCyHhZvExj0+IJX3Erp7GI0X/7jsoUncd3jEVnrcunEDEog16Q8Zjuw/3aSiqvHlWhf1UFeI+Y8WjvxRdelKFHY6h3UA5ajnGVTqsqzK9NXVVVoG2qdmNrWt0/829+LVa0MYCX7YZ+ajyj9SeV3FdGYgQ92O38xQfh6C/5dcOZx4j5EIg9u6Y5CjHobVRFhuZkKwPAJAUQgqYuLSGyuURSBwsVOZbazLlUY3zjDFinEo27QMYZitT8aCBTCzkWDy9pp7KgY2x4RN5vxo1b05rWoyrW2zEzOxMHtLpfvzmjaS1cKTChrSNPvV5Syti5Y8Qr96Iifo/ybFc5+dWLF7Vir8ZvfP4LcVtpBJmyyWi6QSckTeezFvCV79Qdm6A/xiwm9rqBwLpnvNiLeFXR3nZplFOScxpQb95GQcSbfL384EPGggQWYIrxBAVyNhDMubYhM9dsbECPA8FzWtqwlVDIkxELLKN5z8OIPlXSA4q4TmcjLt2Y9pduF1VSXZmejoYWtla712XLDu2gcMC5l8/7syC+GNGrvLZz1864dvlSfPbRX4/ZuYUt+kQSBkMeIgujsOjp0i1NhGIYUuPCwwIESzFk6gQU9kiMeqMqjSCWPzLKCOPe0ahXRmd6DgIom2TSSHjOX0GhRx2OYGCqAzopqHC5EIwFsGAYj29/lC/tq5zqdGKgtx0N1XKgEc1DAwMa1zZKDr330JH4L4/9ThzeMx613n5XxTt27NBQM545+1wcGB+PrnRgj/mLv/o575DgVb5klbLLkMhWBUfZgDhwdMEMdBpzoKWufi4huuicVJIeUQmEdK6ddrSIMETUq6YLYYCEEe8OZw7g6SPzEZE07nFCejqhgK6GRUsXCKoXwjkXiad/7SZKRAmRwNMcImFxeckrPSUIBO0UrdCkojktJo+881R88Rtf9dayT5UAKWR0uD9eOnchLk5djtH+wfi3//7RuE1utTxWyfzTfNu1IjISADTyeElR/gRBDXjuwffhTnRJ2KSOA7QDks0dSRgAC5dQzrCGoKY7eVBc7SUTymmtyPaXtRyReBni6t/kKy4yBGLVlAv4witYRIBOLva9e8L7gncu0gD3fc2myy0iFBiehzbF+z0PvF116RVXEYva3bzv4bfHf/vmf4+TqklDOCh34tixeP75c/ElRe6ydk3IlFphBZQnGlPetmciMjPd8xlrgc2pDQq654wSaG48ZOScrRkyxhCMdGtoAcpcZmiAWMFhyi392Ec3GWVEbE55jMUUtKBqRGmC5DmNDh5TSALIOfS1NH0xElbNKMjUgFDwgB6lGZGxpm1gR1tSptclFeXveuvb4oLyoLwRi0sr8Z5T71TZsx43ZlWYK0Ln5mbjf/zhHykatdBJ/hIY5sUMsLm41bv+0BHeQHCPUZDDqc5dBIZHDWeipmBgw2ezMWv+EgIWt7LyiA2qaxo5RBMBPMgmQZqJJBPY0xAA4oaRsHjTolXCgO8VXLUbD2ade3WkyZNKb7PlBQIlswTJH3vOLq9Fu1mPS9q7/5W3PRRTly86Ly7LoCf374kvfPnLsUvR+dvf/F1XFOCnnlWu51AHnODFk7AUCzmJWHRFh/xaJfKBJAmjZZlS3opoOkZ68vQrKQq3ociEiUNXFK14OauBiwipGBKmwdTlyEwoNQTVONtFn2EgWPAyNyFwUQBw2BfsNCSw+eMq+JikFsWmFwF/K07TvqfRiktXL8eptz2svDqvY8VFeV26f+f7z7BUW0kvdPhUb3aqiGWUQrORxmIUvZFLdz4je6WrZcb5LHy6zuIcCjKfyJO//c+jLL2gM84gVj4GFWhiqGEQACWXASul9aIxZZHCAjv8daXpy49bEZUpAc389pgEqJSBWyWT76AmH4gHJUvmKAF7GLZsBzHEqlflrhaVhfiDJ74Tx7SXf/XlV+P8ubNx5sUXNIb8wiWCkBKiUGeWuA+6FNlWRm3b4eiQPbqCjjVFJpwjKrol4KxzJZ+dIx3dpyZHt/h5KJcm5+jxHAG+AlKfN/0yVPEexoemLswcg4FGriUSoUO//VvhlAcpGTniqj6mFbUiZQsCQ5IVnM+O8Lw5aXHwRyOKEPhPHj8Wl2cX4+jOgZi6ei3mlQLq4k1zrWwqaRhHmGRCfvrZx3tzooPozIUXWHJp9XM+4bhMEwzTWMFuXZHGs8z9PAGzFfSq8Pv6BjZ5KABTLwY+UimI0mfD+B4sohAvw0DE1YlBwM9pxAEBnWWgVCbZETHFwygGXZgRkdkqOB8MMd3SoYhN2cIzTKKXJ3/r2hDA01iw8znh+VcUriDuIm1Zys1faABt9yEWAUXKQj/GPLnUMmpp6qBP4yU91sr/xZCcOpMbdRYCXuUBKdOUh8H41UT1gnzuivIa5lZKF7zsAMMnIwTwmGBc+DJm+BSWsVw9U/P80WlGOZ9Hw4ceIhiHEBFrClRmK47IhSxl0J9bx4scMy3HoI4cOL40HjESpdAGjf+7QTMN6NmQ3OdTL/DTecQoAwLiTzd2lLZknM2MX1NYYHU4GnVuaYVc6/D0CENnuUJj2mQ+SWPkTgHFYYZzqnrOeKIuHrkQAZ8Rmqt2blP5+cvK2qr5IpCfyggHWjTgU5HCwWLaUPAnIh3pHsuZ5ByqVp7qgG/6UGEMeo6qggcfprhoOapoyQ2ZoSGWuk9zwtcQ6qS/+vF+SkUO8YCIW0Ch5LPKREQhYoQRUoO/rMCdzjjCcGLIuH+qzLXwePHHPbBEKAYjz1pRwfIrYPAq0cWrcobw+T0jDVk9R6yYIHEYZ8urae2nUeRsHCVdRIcXD0Lo4x4a9KUTG4kLR8KLWli0XeIJOp/vZlrbghd9U7KDMhiEpB7ZJp/aoKQ8J+H5sRF+JdLIUcDCHiEyJYi5FgQbGzxeOmcUcMc7RmeKCl+S5oOUNJBOsaE36PkbHsLjH1H5t+iogIDCdzoQ/1pNe/ZO/mQaXBSHn1NACqf+IgNnzSZFucfV4JsOzYahPN3Vl6kKMdNx8CMqzV8HX+Epv0SBBosSBuaaAOCcEYzkgmlqNUdEI1Qs8zoF4YLcUYznUQRVP0l6W0ymEPkIbOEAi/F0Xaa0oXWdC1Y6L6uA7X0yLX+2VxyV9KCBA/JLYmkEdm4u59QYA5/al/FsWTMSGB4Xc+/2oAk/dNriSjqQUXVm4wJ96tPU3eCM6CAokBlIBgBkSPr7l1y62yoRBFS+rgwkxHgBTMLOFTa/5XC38WGWe1YY5RQjWsmx5ccGRBDRnl+nSWOV70Yy9YkCGh+g0bKu04VoygxOJchj42uMz2qQheexNOdZlNc1UYeyxlejUC8fitlBwHpccIZlsWW3xe9BJZuOsgDBPYPJaDlmOsKTwY0OTF9v7ybKAggR6iyixKaqoqYQISrIlWlC+mCTwsG21KJM5/JxBUy8G1HLlVsXhSDniho04EdfOoyVlzxeYCWLXkSWjVHhwROH+L9yCTZ3LGmQDJnUy7PMjWgVDNGqO+iRLm2PiiYNw/sLZ9zwZp4ZUPwwy3pLTvqsvN56Wq1e9aXV3aUL8gmresklGFEXoHsaQR2BkwrSVKEvGBTAAbnrEYT7cUCu4I4qHV7RhV9W2lxBcXQ6ELp+CYmXczh75A5fKEiDIGsaAWjRFFpOUKvmJ01rAqgksWltWHha1gwC9KXPmxLgJAgiMJYyoyI2SqcwBp3sSxrwyBWBDh/kMIyRSJiNe9eHFYp/eF9FH+LBeHsxQBSETA2g4wgTrWJIGrsHT3cBGVrdmcg5MJJOXpA0JgAMSeMXFCl60kIZMJwyLGPy5Y2oNozgKR/zl2jVsK5R2wcUxYvZidMwajGQAEURDN4tlBDQGxzGhYGddFgWcg9KFwRYFlIWVZeJnIr3KTpspIqNx3WPQZhqYJGfvJpDUf1EoiU3Bwmj68xH7N0V4cL3h3Z2JPnW2ps+TkDQlA8jpmFRGCOX6EjeDKQ8PuvWOBhKcFxjjEpyy4ZefF07+SRtsKDJ7AHIjhKcKYgW8qEjHJJSvtcoI+gq02/r6bIYcZ8KInRG6bKiI+uwJIHACEgqYMcBLZT04mE6aWj6uCdK4JHfxiUWMRw4+UEWn5uXR3c0R4logOuUo1IJzhkRrNR8rEaZxSJTxrIGdAAI19Na9zaOKJX86ZOVwFi52HGm8X0AngcQQlmlFPmL07lLuzEj4NHT6u13zJmQPQipFIJ8xqqI0CalPzwIHAQhZ2WNYalSOCnNw4rMt0rkzkUMIIho27v0mMLd2MZHFnr42eEq/95bHciFAfPTT11XDoWHo043pKBiMMagxzNQtpY4tDQkxwHInumKtUCOYWGpHIScrgxEyAsWQlkwGbZaXKFScjx0aljfq6yIU7qwcCAODcK5QIidhEY8Vk9Zv5q65KPc36boeFhw9MFMXR0JyDfbBFxNbwRwZrSgVkgMoQEtkDyuy7Xq/6Sn6ml63lGAxQZzgu+cijgopDErBi21ZW3ibRz6q750HQdLBmeVYXxDw4GTxjYzv6VO5FwMTFhliqKlIU2Lv/z/mbqXhdrah/PNMYzrbw+rG2ArSROejYVgGiVqHQmCyZIhw11QNiSKUhvyqWJGN0pDL6MWp6TQKE+UFSHLmQaQjCv6nrbKsRjL09fnIn5xFEbjGho4SjCFLkIJuEQT8mHMvDeAhnGXbrgvY8nB+Lo1HpAEBGPYx0EBkIkKnBoSY/Ty4ZT62M8yjpC5gyHKtvfG/vKCQgQwP/8zrHKY4C0s2FVUoDxKlcIcGo4MRDBe0s/o2HYkzbskVxFyCoLrZaXFG140F/3q72vl7gmHup8DA+hFqkIvnXRmhEhOXRwkaslRMmkYySyDeGT5xExgiOeZBBO0c5YwU/1wOL2BgjCpmBspIwtF4E2fuUgsDMRtmSZWCsJgCbArvzVrKTywTDUbQcIjJFMzcxG+hYaJWwaELD+fSX7J02UJxsagNj7wGIMpijyib9/wAIUdVGImZVq5Kr04NhecVLjSyfeiTU2t/uJUmrkIwHwlA07Yjky98QUlbvBt/hHeig4UkiHxKAzwjJXyuxjACIIyTOajFAbj1VRmZLEO3cRxbrW0gtW1ULnR4U5ubADydNlzV9ZJ+jY8jjOiGv30QA+SevMQeZQTxk38Enmcsw/JpIVguAYXsg4HrnXG4Z5hwEBbGEme6+SFnUxCTXoLSc7Jf+ThLh2EcO5TMVuayOi6qu5EkChLUyE8pcXWqKcdGBlFuhLs1m8NLVia2bZQI+KQxZFJXtSF6blUEa1kuoVj04gm6YVyJcfs4oqWIgcYdZinWgaF9JPVgMO5OA4gqgRKP5qfMRgb3YWvfr5xR0unCN8zMXkB11b9nf9aXJSZKn4io0EmIvFojmoOaV8JVH3eXYhYCpRg3iMrrCCGd/2xATBmhmGgQ4SkLfOenAVv8jN4peVVoZ8RU8ThXXeC97i3t4LZSgmpPM5Fji14a4ApNcZzS9KQFjVHqkb81XJfIRdRmtPXzwbu6kvtsrHoss7glLul///t/7lF/B+x2NXW2exEwgAAAABJRU5ErkJggg==;" vertex="1" parent="1">
          <mxGeometry x="482" y="-525.64" width="88.4" height="88.4" as="geometry" />
        </mxCell>
        <mxCell id="j9suDuCbf65Sm_-P19-l-72" value="" style="image;aspect=fixed;perimeter=ellipsePerimeter;html=1;align=center;shadow=0;dashed=0;spacingTop=3;image=img/lib/active_directory/secure.svg;" vertex="1" parent="1">
          <mxGeometry x="230" y="-485.24" width="18" height="28.12" as="geometry" />
        </mxCell>
        <mxCell id="j9suDuCbf65Sm_-P19-l-77" value="&lt;span style=&quot;font-family: &amp;quot;Times New Roman&amp;quot;;&quot;&gt;&lt;b&gt;&lt;font style=&quot;font-size: 14px;&quot;&gt;Forward Diffusion&lt;/font&gt;&lt;/b&gt;&lt;/span&gt;" style="rounded=1;whiteSpace=wrap;html=1;fillColor=#E6E6E6;" vertex="1" parent="1">
          <mxGeometry x="465.70000000000005" y="-207.78" width="121" height="49" as="geometry" />
        </mxCell>
        <mxCell id="j9suDuCbf65Sm_-P19-l-82" value="" style="edgeStyle=orthogonalEdgeStyle;rounded=0;orthogonalLoop=1;jettySize=auto;html=1;strokeColor=#9AC7BF;strokeWidth=2;" edge="1" parent="1" source="j9suDuCbf65Sm_-P19-l-70" target="j9suDuCbf65Sm_-P19-l-80">
          <mxGeometry relative="1" as="geometry" />
        </mxCell>
        <mxCell id="j9suDuCbf65Sm_-P19-l-70" value="" style="shape=trapezoid;perimeter=trapezoidPerimeter;whiteSpace=wrap;html=1;fixedSize=1;direction=east;fillColor=#dae8fc;strokeColor=#7EA6E0;strokeWidth=2;" vertex="1" parent="1">
          <mxGeometry x="475.9826249769101" y="-411.02262497691004" width="100.42796005706134" height="48.9532100108814" as="geometry" />
        </mxCell>
        <mxCell id="j9suDuCbf65Sm_-P19-l-71" value="$$\varepsilon_{2D}$$" style="text;whiteSpace=wrap;strokeWidth=5;fontFamily=Times New Roman;fontSize=24;align=center;fontStyle=3;" vertex="1" parent="1">
          <mxGeometry x="480.45000000000005" y="-432" width="89.95" height="86" as="geometry" />
        </mxCell>
        <mxCell id="j9suDuCbf65Sm_-P19-l-83" value="" style="edgeStyle=orthogonalEdgeStyle;rounded=0;orthogonalLoop=1;jettySize=auto;html=1;strokeColor=#67AB9F;strokeWidth=2;" edge="1" parent="1" source="j9suDuCbf65Sm_-P19-l-80" target="j9suDuCbf65Sm_-P19-l-77">
          <mxGeometry relative="1" as="geometry" />
        </mxCell>
        <mxCell id="j9suDuCbf65Sm_-P19-l-80" value="" style="html=1;whiteSpace=wrap;shape=isoCube2;backgroundOutline=1;isoAngle=15;direction=east;fillColor=#cce5ff;strokeColor=#36393d;" vertex="1" parent="1">
          <mxGeometry x="511.20000000000005" y="-333" width="30" height="86.8" as="geometry" />
        </mxCell>
        <mxCell id="j9suDuCbf65Sm_-P19-l-81" value="$$\mathbf{z}_{0}$$" style="text;whiteSpace=wrap;fontSize=15;align=center;" vertex="1" parent="1">
          <mxGeometry x="418" y="-356" width="138.35" height="56.76" as="geometry" />
        </mxCell>
        <mxCell id="j9suDuCbf65Sm_-P19-l-159" value="" style="edgeStyle=orthogonalEdgeStyle;rounded=0;orthogonalLoop=1;jettySize=auto;html=1;strokeColor=#67AB9F;strokeWidth=2;" edge="1" parent="1" source="j9suDuCbf65Sm_-P19-l-84" target="j9suDuCbf65Sm_-P19-l-158">
          <mxGeometry relative="1" as="geometry" />
        </mxCell>
        <mxCell id="j9suDuCbf65Sm_-P19-l-84" value="" style="html=1;whiteSpace=wrap;shape=isoCube2;backgroundOutline=1;isoAngle=15;direction=east;gradientColor=default;" vertex="1" parent="1">
          <mxGeometry x="579" y="-85" width="30" height="86.8" as="geometry" />
        </mxCell>
        <mxCell id="j9suDuCbf65Sm_-P19-l-88" value="$$\mathbf{z}_{T^{\prime}}$$" style="text;whiteSpace=wrap;fontSize=15;align=center;" vertex="1" parent="1">
          <mxGeometry x="475.98" y="-100" width="160.43" height="62.96" as="geometry" />
        </mxCell>
        <mxCell id="j9suDuCbf65Sm_-P19-l-89" value="" style="endArrow=classic;html=1;rounded=0;exitX=0.5;exitY=1;exitDx=0;exitDy=0;entryX=0.659;entryY=0.095;entryDx=0;entryDy=0;entryPerimeter=0;strokeColor=#67AB9F;strokeWidth=2;" edge="1" parent="1" source="j9suDuCbf65Sm_-P19-l-77" target="j9suDuCbf65Sm_-P19-l-88">
          <mxGeometry width="50" height="50" relative="1" as="geometry">
            <mxPoint x="382" y="-45" as="sourcePoint" />
            <mxPoint x="432" y="-95" as="targetPoint" />
          </mxGeometry>
        </mxCell>
        <mxCell id="j9suDuCbf65Sm_-P19-l-90" value="" style="endArrow=classic;html=1;rounded=0;entryX=0.816;entryY=0.059;entryDx=0;entryDy=0;entryPerimeter=0;strokeColor=#67AB9F;strokeWidth=2;" edge="1" parent="1" target="j9suDuCbf65Sm_-P19-l-88">
          <mxGeometry width="50" height="50" relative="1" as="geometry">
            <mxPoint x="815" y="-279" as="sourcePoint" />
            <mxPoint x="740" y="-116" as="targetPoint" />
          </mxGeometry>
        </mxCell>
        <mxCell id="j9suDuCbf65Sm_-P19-l-93" value="&lt;b&gt;&lt;font style=&quot;font-size: 14px;&quot;&gt;Backward Diffusion&lt;/font&gt;&lt;/b&gt;" style="text;html=1;align=center;verticalAlign=middle;whiteSpace=wrap;rounded=0;" vertex="1" parent="1">
          <mxGeometry x="601" y="-85" width="155" height="47" as="geometry" />
        </mxCell>
        <mxCell id="j9suDuCbf65Sm_-P19-l-148" value="" style="rhombus;whiteSpace=wrap;html=1;fillColor=#B9E0A5;strokeColor=#97D077;" vertex="1" parent="1">
          <mxGeometry x="882.7" y="-440" width="12" height="12" as="geometry" />
        </mxCell>
        <mxCell id="j9suDuCbf65Sm_-P19-l-149" value="" style="rhombus;whiteSpace=wrap;html=1;fillColor=#B9E0A5;strokeColor=#97D077;" vertex="1" parent="1">
          <mxGeometry x="882.7" y="-387" width="12" height="12" as="geometry" />
        </mxCell>
        <mxCell id="j9suDuCbf65Sm_-P19-l-153" value="" style="endArrow=none;html=1;rounded=0;strokeWidth=2;strokeColor=#67AB9F;" edge="1" parent="1">
          <mxGeometry width="50" height="50" relative="1" as="geometry">
            <mxPoint x="417" y="-282" as="sourcePoint" />
            <mxPoint x="505" y="-282" as="targetPoint" />
          </mxGeometry>
        </mxCell>
        <mxCell id="j9suDuCbf65Sm_-P19-l-154" value="" style="edgeStyle=segmentEdgeStyle;endArrow=classic;html=1;curved=0;rounded=0;endSize=8;startSize=8;strokeWidth=2;strokeColor=#67AB9F;" edge="1" parent="1">
          <mxGeometry width="50" height="50" relative="1" as="geometry">
            <mxPoint x="417" y="-284" as="sourcePoint" />
            <mxPoint x="741" y="95" as="targetPoint" />
            <Array as="points">
              <mxPoint x="417" y="-10" />
              <mxPoint x="417" y="40" />
            </Array>
          </mxGeometry>
        </mxCell>
        <mxCell id="j9suDuCbf65Sm_-P19-l-155" value="" style="html=1;whiteSpace=wrap;shape=isoCube2;backgroundOutline=1;isoAngle=15;direction=east;gradientColor=#808080;" vertex="1" parent="1">
          <mxGeometry x="745" y="49" width="30" height="86.8" as="geometry" />
        </mxCell>
        <mxCell id="j9suDuCbf65Sm_-P19-l-157" value="$$\mathbf{z}_{T^{\prime}-1}$$" style="text;whiteSpace=wrap;fontSize=15;align=center;" vertex="1" parent="1">
          <mxGeometry x="679.79" y="1.7999999999999972" width="160.43" height="62.96" as="geometry" />
        </mxCell>
        <mxCell id="j9suDuCbf65Sm_-P19-l-158" value="" style="html=1;whiteSpace=wrap;shape=isoCube2;backgroundOutline=1;isoAngle=15;direction=east;gradientColor=#666666;" vertex="1" parent="1">
          <mxGeometry x="748" y="-85" width="30" height="86.8" as="geometry" />
        </mxCell>
        <mxCell id="j9suDuCbf65Sm_-P19-l-161" value="$$\mathbf{\hat{z}}_{T^{\prime}-1}$$" style="text;whiteSpace=wrap;fontSize=15;align=center;" vertex="1" parent="1">
          <mxGeometry x="682.79" y="-128" width="160.43" height="62.96" as="geometry" />
        </mxCell>
        <mxCell id="j9suDuCbf65Sm_-P19-l-162" value="&lt;b&gt;&lt;font style=&quot;font-size: 14px;&quot;&gt;Backward Diffusion&lt;/font&gt;&lt;/b&gt;" style="text;html=1;align=center;verticalAlign=middle;whiteSpace=wrap;rounded=0;" vertex="1" parent="1">
          <mxGeometry x="793" y="-118" width="116" height="47" as="geometry" />
        </mxCell>
        <mxCell id="j9suDuCbf65Sm_-P19-l-163" value="$$\mathrm{Eq.(3)}$$" style="text;whiteSpace=wrap;align=center;fontStyle=1" vertex="1" parent="1">
          <mxGeometry x="423" y="49" width="139" height="45.85" as="geometry" />
        </mxCell>
        <mxCell id="j9suDuCbf65Sm_-P19-l-169" value="" style="edgeStyle=orthogonalEdgeStyle;rounded=0;orthogonalLoop=1;jettySize=auto;html=1;entryX=0;entryY=0.5;entryDx=0;entryDy=0;strokeColor=#67AB9F;strokeWidth=2;" edge="1" parent="1" source="j9suDuCbf65Sm_-P19-l-164" target="j9suDuCbf65Sm_-P19-l-170">
          <mxGeometry relative="1" as="geometry">
            <mxPoint x="888.7799999999997" y="90.5" as="targetPoint" />
          </mxGeometry>
        </mxCell>
        <mxCell id="j9suDuCbf65Sm_-P19-l-164" value="&lt;font style=&quot;font-size: 14px;&quot;&gt;&lt;b&gt;D&lt;/b&gt;&lt;/font&gt;" style="ellipse;whiteSpace=wrap;html=1;aspect=fixed;strokeWidth=2;" vertex="1" parent="1">
          <mxGeometry x="824" y="76" width="32" height="32" as="geometry" />
        </mxCell>
        <mxCell id="j9suDuCbf65Sm_-P19-l-167" value="" style="endArrow=classic;html=1;rounded=0;exitX=1;exitY=0.5;exitDx=0;exitDy=0;exitPerimeter=0;entryX=0;entryY=0.5;entryDx=0;entryDy=0;strokeColor=#67AB9F;" edge="1" parent="1" source="j9suDuCbf65Sm_-P19-l-155" target="j9suDuCbf65Sm_-P19-l-164">
          <mxGeometry width="50" height="50" relative="1" as="geometry">
            <mxPoint x="921" y="103" as="sourcePoint" />
            <mxPoint x="971" y="53" as="targetPoint" />
          </mxGeometry>
        </mxCell>
        <mxCell id="j9suDuCbf65Sm_-P19-l-179" value="" style="edgeStyle=orthogonalEdgeStyle;rounded=0;orthogonalLoop=1;jettySize=auto;html=1;strokeColor=#67AB9F;strokeWidth=2;" edge="1" parent="1" source="j9suDuCbf65Sm_-P19-l-170" target="j9suDuCbf65Sm_-P19-l-171">
          <mxGeometry relative="1" as="geometry">
            <Array as="points">
              <mxPoint x="953" y="15" />
              <mxPoint x="953" y="15" />
            </Array>
          </mxGeometry>
        </mxCell>
        <mxCell id="j9suDuCbf65Sm_-P19-l-170" value="" style="shape=image;verticalLabelPosition=bottom;labelBackgroundColor=default;verticalAlign=top;aspect=fixed;imageAspect=0;image=data:image/png,iVBORw0KGgoAAAANSUhEUgAAAZAAAAGQCAAAAACl1GkQAAAEJ0lEQVR4nO3aUU4bURBFwQdi/0uGfJiQBAYSiUg+3apaQV+dsefDfng5lDze+wD+JEiMIDGCxAgSI0iMIDGCxAgSI0iMIDGCxAgSI0iMIDGCxAgSI0iMIDGCxAgSI0iMIDGCxAgSI0iMIDGCxAgSI0iMIDGCxAgSI0iMIDGCxAgSI0iMIDGCxAgSI0iMIDGCxAgSI0iMIDGCxAgSI0iMIDGCxAgSI0iMIDGCxAgSI0iMIDGCxAgSI0iMIDGCxAgSI0iMIDGCxAgSI0iMIDGCxAgSI0iMIDGCxAgSI0iMIDGCxAgSI0iMIDGCxAgSI0iMIDGCxAgSI0iMIDGCxAgSI0iMIDGCxAgSI0iMIDGCxOwL8jh70sPLvS/4r24xnu98xXfMfpzeW7BmwYRfNozZsOGnFVtWjLjZMWXHinPWLFkyY88QO2KWDFky42xZsmPFOWfJlBUjXm3YsmHDm1VjNlgQZMGE3zzd+4Dv2pVj/p7p938wfNDw8y/MXjT7+ksLJ802+qV+/TRN/gF3dJCdH+65q+Ze/qWxsz49fPY31tggU+/+q6HDhp79Dwa/1C8N/8KaGuTqAzI+xc3MIO8saXHOWfff3vn2vh2HEiRGkBhBYgSJESRGkBhBYgSJESRGkBhBYgSJESRGkBhBYgSJESRGkBhBYgSJESRGkBhBYgSJESRGkBhBYgSJESRGkBhBYgSJESRGkBhBYgSJESRGkBhBYgSJESRGkBhBYgSJESRGkBhBYgSJESRGkBhBYgSJESRGkBhBYgSJESRGkBhBYgSJESRGkBhBYgSJESRGkBhBYgSJESRGkBhBYgSJESRGkBhBYgSJESRGkBhBYgSJESRGkBhBYgSJESRGkBhBYgSJESRGkBhBYgSJESRGkBhBYgSJESRGkBhBYgSJESRGkBhBYgSJESRGkBhBYgSJESRGkBhBYgSJESRGkBhBYgSJESRGkBhBYgSJESRGkBhBYgSJESRGkBhBYgSJESRGkBhBYgSJESRGkBhBYgSJESRGkBhBYgSJESRGkBhBYgSJESRGkBhBYgSJESRGkBhBYgSJESRGkBhBYgSJESRGkBhBYgSJESRGkBhBYgSJESRGkBhBYgSJESRGkBhBYgSJESRGkBhBYgSJESRGkBhBYgSJESRGkBhBYgSJESRGkBhBYgSJESRGkBhBYgSJESRGkBhBYgSJESRGkBhBYgSJESRGkBhBYgSJESRGkBhBYgSJESRGkBhBYgSJESRGkBhBYgSJESRGkBhBYgSJESRGkBhBYgSJESRGkBhBYgSJESRGkBhBYgSJESRGkBhBYgSJESRGkBhBYgSJESRGkBhBYgSJESRGkBhBYgSJESRGkBhBYgSJESRGkBhBYgSJESRGkBhBYgSJESRGkBhBYgSJESRGkBhBYgSJ+QHy5AxPb0em0AAAAABJRU5ErkJggg==;" vertex="1" parent="1">
          <mxGeometry x="912" y="49" width="83" height="83" as="geometry" />
        </mxCell>
        <mxCell id="j9suDuCbf65Sm_-P19-l-171" value="" style="shape=trapezoid;perimeter=trapezoidPerimeter;whiteSpace=wrap;html=1;fixedSize=1;direction=south;fillColor=#fff2cc;strokeColor=#d6b656;" vertex="1" parent="1">
          <mxGeometry x="924" y="-114.5" width="58.7" height="106.01" as="geometry" />
        </mxCell>
        <mxCell id="j9suDuCbf65Sm_-P19-l-174" value="" style="edgeStyle=segmentEdgeStyle;endArrow=classic;html=1;curved=0;rounded=0;endSize=8;startSize=8;exitX=1;exitY=0.5;exitDx=0;exitDy=0;exitPerimeter=0;entryX=1;entryY=1;entryDx=0;entryDy=0;strokeColor=#67AB9F;strokeWidth=2;" edge="1" parent="1" source="j9suDuCbf65Sm_-P19-l-158" target="j9suDuCbf65Sm_-P19-l-157">
          <mxGeometry width="50" height="50" relative="1" as="geometry">
            <mxPoint x="902" y="-89" as="sourcePoint" />
            <mxPoint x="952" y="-39" as="targetPoint" />
          </mxGeometry>
        </mxCell>
        <mxCell id="j9suDuCbf65Sm_-P19-l-176" value="" style="endArrow=classic;html=1;rounded=0;exitX=1.044;exitY=0.307;exitDx=0;exitDy=0;exitPerimeter=0;entryX=0.5;entryY=1;entryDx=0;entryDy=0;strokeColor=#67AB9F;strokeWidth=2;" edge="1" parent="1" source="j9suDuCbf65Sm_-P19-l-158" target="j9suDuCbf65Sm_-P19-l-171">
          <mxGeometry width="50" height="50" relative="1" as="geometry">
            <mxPoint x="843.22" y="-46.52000000000001" as="sourcePoint" />
            <mxPoint x="913.9306781186548" y="-96.52000000000001" as="targetPoint" />
          </mxGeometry>
        </mxCell>
        <mxCell id="j9suDuCbf65Sm_-P19-l-184" value="" style="edgeStyle=orthogonalEdgeStyle;rounded=0;orthogonalLoop=1;jettySize=auto;html=1;strokeWidth=2;strokeColor=#67AB9F;" edge="1" parent="1" source="j9suDuCbf65Sm_-P19-l-177" target="j9suDuCbf65Sm_-P19-l-181">
          <mxGeometry relative="1" as="geometry" />
        </mxCell>
        <mxCell id="j9suDuCbf65Sm_-P19-l-177" value="" style="shape=trapezoid;perimeter=trapezoidPerimeter;whiteSpace=wrap;html=1;fixedSize=1;direction=north;fillColor=#fff2cc;strokeColor=#d6b656;" vertex="1" parent="1">
          <mxGeometry x="996" y="-118" width="59.7" height="106.01" as="geometry" />
        </mxCell>
        <mxCell id="j9suDuCbf65Sm_-P19-l-180" value="&lt;span style=&quot;color: rgb(51, 51, 51); font-style: normal; font-variant-ligatures: normal; font-variant-caps: normal; letter-spacing: normal; orphans: 2; text-indent: 0px; text-transform: none; widows: 2; word-spacing: 0px; -webkit-text-stroke-width: 0px; white-space: normal; background-color: rgb(236, 236, 236); text-decoration-thickness: initial; text-decoration-style: initial; text-decoration-color: initial; float: none; display: inline !important;&quot;&gt;$$loss_{2D}$$&lt;/span&gt;" style="text;whiteSpace=wrap;html=1;align=center;fontFamily=Times New Roman;fontSize=15;fontStyle=1;strokeColor=default;dashed=1;" vertex="1" parent="1">
          <mxGeometry x="1000" y="11.049999999999997" width="96.3" height="54" as="geometry" />
        </mxCell>
        <mxCell id="j9suDuCbf65Sm_-P19-l-197" value="" style="edgeStyle=orthogonalEdgeStyle;rounded=0;orthogonalLoop=1;jettySize=auto;html=1;strokeColor=#67AB9F;strokeWidth=2;" edge="1" parent="1" source="j9suDuCbf65Sm_-P19-l-181" target="j9suDuCbf65Sm_-P19-l-195">
          <mxGeometry relative="1" as="geometry" />
        </mxCell>
        <mxCell id="j9suDuCbf65Sm_-P19-l-181" value="" style="html=1;whiteSpace=wrap;shape=isoCube2;backgroundOutline=1;isoAngle=15;direction=east;strokeColor=#CCCCCC;gradientColor=#CCCCCC;" vertex="1" parent="1">
          <mxGeometry x="1135" y="-108.4" width="30" height="86.8" as="geometry" />
        </mxCell>
        <mxCell id="j9suDuCbf65Sm_-P19-l-182" value="$$\mathbf{\hat{z}}_{T^{\prime}-2}$$" style="text;whiteSpace=wrap;fontSize=15;align=center;" vertex="1" parent="1">
          <mxGeometry x="1069.79" y="-149" width="160.43" height="62.96" as="geometry" />
        </mxCell>
        <mxCell id="j9suDuCbf65Sm_-P19-l-189" value="&lt;b&gt;&lt;font style=&quot;font-size: 14px;&quot;&gt;Backward Diffusion&lt;/font&gt;&lt;/b&gt;" style="text;html=1;align=center;verticalAlign=middle;whiteSpace=wrap;rounded=0;" vertex="1" parent="1">
          <mxGeometry x="1165" y="-119.00000000000003" width="100" height="47" as="geometry" />
        </mxCell>
        <mxCell id="j9suDuCbf65Sm_-P19-l-190" value="" style="group" vertex="1" connectable="0" parent="1">
          <mxGeometry x="1249" y="-120" width="125" height="49" as="geometry" />
        </mxCell>
        <mxCell id="j9suDuCbf65Sm_-P19-l-191" value="$$\mathrm{T&#39;}-2$$" style="text;whiteSpace=wrap;align=center;labelBorderColor=none;textShadow=0;labelBackgroundColor=none;fontSize=15;" vertex="1" parent="j9suDuCbf65Sm_-P19-l-190">
          <mxGeometry width="125" height="49" as="geometry" />
        </mxCell>
        <mxCell id="j9suDuCbf65Sm_-P19-l-192" value="" style="group" vertex="1" connectable="0" parent="j9suDuCbf65Sm_-P19-l-190">
          <mxGeometry x="9" y="16" width="61" height="27" as="geometry" />
        </mxCell>
        <mxCell id="j9suDuCbf65Sm_-P19-l-193" value="" style="html=1;verticalLabelPosition=bottom;align=center;labelBackgroundColor=#ffffff;verticalAlign=top;strokeWidth=2;strokeColor=#000000;shadow=0;dashed=0;shape=mxgraph.ios7.icons.reload;direction=south;" vertex="1" parent="j9suDuCbf65Sm_-P19-l-192">
          <mxGeometry width="27" height="24" as="geometry" />
        </mxCell>
        <mxCell id="j9suDuCbf65Sm_-P19-l-194" value="X" style="text;html=1;align=center;verticalAlign=middle;whiteSpace=wrap;rounded=0;fontSize=8;" vertex="1" parent="j9suDuCbf65Sm_-P19-l-192">
          <mxGeometry x="16" y="6" width="45" height="21" as="geometry" />
        </mxCell>
        <mxCell id="j9suDuCbf65Sm_-P19-l-203" value="" style="edgeStyle=orthogonalEdgeStyle;rounded=0;orthogonalLoop=1;jettySize=auto;html=1;strokeColor=#67AB9F;strokeWidth=2;" edge="1" parent="1" source="j9suDuCbf65Sm_-P19-l-195" target="j9suDuCbf65Sm_-P19-l-201">
          <mxGeometry relative="1" as="geometry" />
        </mxCell>
        <mxCell id="j9suDuCbf65Sm_-P19-l-195" value="" style="html=1;whiteSpace=wrap;shape=isoCube2;backgroundOutline=1;isoAngle=15;direction=east;fillColor=#eeeeee;strokeColor=#36393d;" vertex="1" parent="1">
          <mxGeometry x="1339" y="-108.4" width="30" height="86.8" as="geometry" />
        </mxCell>
        <mxCell id="j9suDuCbf65Sm_-P19-l-199" value="$$\hat{\mathbf{z}}_0$$" style="text;whiteSpace=wrap;fontSize=15;align=center;" vertex="1" parent="1">
          <mxGeometry x="1275" y="-154" width="150" height="59" as="geometry" />
        </mxCell>
        <mxCell id="j9suDuCbf65Sm_-P19-l-200" value="$$\mathrm{D}$$" style="text;whiteSpace=wrap;fontSize=24;fontFamily=Times New Roman;align=center;fontStyle=3" vertex="1" parent="1">
          <mxGeometry x="1302.22" y="-8.490000000000009" width="102" height="79" as="geometry" />
        </mxCell>
        <mxCell id="j9suDuCbf65Sm_-P19-l-202" value="" style="shape=image;verticalLabelPosition=bottom;labelBackgroundColor=default;verticalAlign=top;aspect=fixed;imageAspect=0;image=data:image/png,iVBORw0KGgoAAAANSUhEUgAAAFMAAABTCAYAAADjsjsAAAAAAXNSR0IArs4c6QAAAARnQU1BAACxjwv8YQUAAAAJcEhZcwAADsMAAA7DAcdvqGQAADAySURBVHhe7ZxpkFzXdd/P9Dr7AsxgXweLREpkKEoqitCWSDEjR7KkchbJW+xIFZWdKqeSSpwPqkRGnFRUrnKSshM6JVtSUiW7KonWULYsO7FZSixSNmmJBE2CBEkQBDAABgNgMJh9enom/9//vDsD52u+5va8fu/de/Zz7rnnvu6ennZv3+bGxkZsbmxG1HqCV61WC/q43tSL+56I6G52BRdRFxzgEbop8N1uXtdrOm8KH4DEj83N6IEAVDbpM0Q06vXEy8Gtxi18gKtDW/jGFU5KyFXy5kCeLjoIrEfIwDeMBzx0wK9pXHLoyk1wmxpnhDfElqYaB194HkfuygqVCObBhQkB200YDdh8hhCxek8aAsEMqiH6uhvd6HQ7ZlqERVuY1QCS4TY592DE7pYhQVgXDGaGQRE0JEC70RCJNEmtVheduq5QAMjKEKKHwslCjtQgVC2d5LLs4tGRQ5DLsugeBwALvS1HiA40cfa6zpuSE93EOerqq/UgD3QyWHAA79BbM336kVMXJic9JVMNGuoDuqfZaoMhYFyTngIeGehDmRxH9IwAxlHGQGrFgzDa8rZgawjFvTpgmooR6XWx2lCkSzkkg14yrDCBAqcn1nGsorkoWHgB1VRkY8jESDnBwZmAWEH1c6YRrUlvmxeG6OreXbrvER9u6OtvtWKlsy6aChLJYAAA1Zi5zEg6uWZMdyah425lamYMIooznCO0iisEuAZG95DF8927o3J9XX26VGMMpsWgnIlAG0aHI7viYliNg0vENupVhEkh4LnGtJ3uumkJwyfgjWOZkSjji4aBMRA86MO5yG7+6jZdMHQNFG8rHc1GXVhVmvGzEf3A5AxCTrQxsqaGboC1L8V4vZuRsy6B5Rg1opJwTzjdigCCZX7B/41624QRH5owaEqxVr1hPI8BKzoF1/jWAKIcimBRIGKgQ1/mb9Fv1KuZ0SNempZEixuj5R1ScqJ4ZBpKeVG+YfdlGnAK0d2qHI5gJJwm091ibEZTvGwLXSO/6epIRyr1yTbIs53T1e9pjpK6J2xLvkxUBMwXvXgBJRzWakBgCAsmgQxU6Ze5DtErkyi/FFwbwcZiFKXuahpiMQTXC4voEJGlbU9tGlNNKUMylAVUQpp2I1cU62N0hlEcZ3BreXMGkI4wIIaHH7YpfQgELPpspyS/VUdq4HzqiJQAxEhHXkKwBgIKCA9wzxjEQMgcaNPKkDrLkOsoL7rwgGFZUDBekygQNI3IzpwnGhvKRTgPehqzaRnTDfjoSsrgniixFBpfrwy5blq6oM8zhmtLmq8u+nRiw/3bBtObeFKV5OwgnTk12fHiIhiCAzTSArPAhoQBh/qIYi9ygoI+jjdeS5HpqVcxwhyoxnUmfY2JMQ2CZuC7bOA1ENR4iCMcvK8+hPR0NX08m/AWyg1+eZ1GzutUgHsckSknZWERqWt1VerRi+izwcH3qC9MEl5UElbaxkpOMqMdzp0N6sBJh5GDEa+pIFhfl84VHTxKcCB75v6kZwMzrBN4tfQlqxrlgRAIfaJGBBC0CwO9EN5TBiw1q6BQrNeYuhkdGJqD8iO9aVA3LjsaA4/phKEQlWlLgyrRAxwszAZ4HTaq4SNWJQ/RhHFBgg/KFPnaWoFrkqmDQ8EBxlyh7yVPV0ATYZLJBu1RFGeZQ7zZBpQ9GgemKz3RD2PimGYj5cHp1MqpnfTKMkJolZVhSFRVxo9Wo2XWeIGDvl4JLHryMsaVcvIkuhEF4maloEkU0TIaEVSR5WhCcA/ZaJk2qms46IyQKOlShl7TRwamv3J3FVHwAYdr0hALJimElr1cwDlnCsb0NNcLWswqHJaGZJTDSDYkY3aYrqlFubA+jNqR6ihsmu1eX2JxM2BaCKMpoK1imD4TFSjIJkRcgYojCoNsGD3vq+ld3ZdpQUO9NGE2+HBsaEqT8IHkMFXh4uCcroVG4ZdQGD7tTsTZJWlcOQ4YDOdWkQA7Rcwo9WKnPAsdjM6Qi3F4C94zruKN0YnoEmS5uUBv6OkK67tkEBlySccLRBbL3tWYswyjE0JzW683HZ2SASoiCvmcbhiRBgNEw/Ol3IFW+lrjVYQ5Ylhc1C2OqZRoIJcXIPgKjoIFiijHVC70t1ZpHTn1sBPuTkOpVDXfDFKQgIRo6sY0hwC6GAd46wYPpMMyCjLk1RhlVLoNGGgJPUsjLKxBEc5uGsg0hMzopCONSqu8KS/aAXq3NDROggPWk6bqzuZB6+NpZ+0wRkYF4zgFIxKIjgbRIU91vBBxVplVyQMhlDGm3nBYpoZsWzLo8HQVD3iSDqyT+nF81tkpV1Ir72bv/rsbciB/QqScNQgBnNs7FMrS1oTUxxiNEsWJWS8WJ4hnNOAbIgwjVIxNE2HUoc6maELPHrRUKKiXDZmR5HyrlgaFfu7CZKqoax+/SsrRa52pKBq8WHWJHPjVJRO6sFggE5iws5EEj7sJFagz60gB4GPgQo+IA6JM7xI44HKflQlO5B79tejKwfACtqdBaWSMomhpEJSgVR8KU+Nl1NCTBD21q5wBDv1IhYkNqxeCwqylqYEz7VHwgC1Nl2lINQmMoJ6mkgG6SYnG4iPjrme5BGLyEQ8iVnLa5SgpgxU8+LtOJmrNRiN2AukKelWkWhGil8vEtSGFS/Bwj+MzjTFjk45nWUOCIBBDG4SfrovoHqrOFPQ2rEBK1PG0BTi8sy2cBMK4YOqttim/CQ9BeVqDUlkOgSPQZJJnHfZw9viauxKt9Ektn3MmEN3AZXQ2FcFlpm3zBI9pCBb9utZVXytzdUdGyFTFuN4d2Wl8ejAi5R+6eddkrNSXawycM1n8CBIGnGQFI3SDpleo5xqOBDf3EXEm412G1ZNxpJKiQh7TPa2HKSpATx26ENKGZSXEqOnhBMcwBVAKKp9tNRyA11UDM0pJ5JwoeKZrTr/cgfg5gmCKg6Dn3OrLNBK7NVbi5bVMa45knf1SvyNNcEBDh8W061ILbI0QLLIRMBlSaXhY9tSbrU3nDB0IBpIjrwgkFGSvaz7Qg9EtOIxNOHG2z7T09N0jvGFY6DrQGFGfnalIRmmMhjPglNO7GI8Fh4VlmyLvzAxyaMqLo7iGSUVDgqfz02lpMmrnplOWZ5IqEq/o6qehm+UTYLEJwcKit6Ut42rEI3jgMOIZ5Cmje09RU0mCICFUo44QOe1I+EylUn6AgzOABJdxrpsSGEGkir0LsZoUtcM4yzCeOqZcngswXclPjHe1pevE2vqqebGwQBdZmc4uqdwHaaQUD5Fm94YRyYW58IDDXj+DANres+sasbOCSVnySZNkQkaNOWWILuOZvnLHZqcbJgMDHJyttCKjSChMwPTB+Rl9CJZIrPCiZzhomAhaqJMpk8mYA+OKuv7WJDCgLTEnVdCyGMcpCJgkgae+ZNeSU6oba2urHhsZbsfEjh05s/zUKWLn2HDc88bj0WrnbgRlMFnSQ9ZML8ivobx2hGb0w5+RDIaihXZ1TaUzy5pGA4YHwj3YxzDYInWFp2eSEDkwNLNGutROQwxkCMHK97rISI2YGBuLucVFEe6JtohDECPzwtMk4BSAKK8e7YsAL7zsiKPLvWClSnDi4xD3pRDuB7bR34of+cAHY9fYeNy6Padp2YmJPbtiYt/eeMPkiTh+YF9cuHrd0QsORmQd9CzTPa4l+gfb7VjtrImD9Klkh76jz3yJ0FxCcGbqJAMKpjiqI2IN7Vby2YXoyKue4o5q6GJ40cmnRhpSR5YNREoJbcQyS6GmGWy0SvMiiBug2e3miBY+XXh8k+hDCd0zBeFBYi9oxbw2Rl89fu6nPxFPPPV0HD5wPJ55+sn44A+9P0LROLFjd1y7OhU378zH+upqfPeJ78WNuXnJkhFDpHiFl6JJUm+WS2dymc4pN2fKL2Zd5kwM1Gy2lAbWBMYUzqjOJlwiVfpSsQL9fzdCyhflU0KmNl2OLggS9gJjm9VQsrZHsQq9GBI4M9Khc6n9fNIZoT3GfXWdhhQ/0OiuBMOQbU23T3/q52Nudi5OHDoS169cjBNvOBn9I4OCUK3aasb+gwdjoK8V7d5WvP2hBx0IyGtelkdN51wguebIgIA/D2mgRaQRw6SxsmmwIWmCc3C5mYBpsshxzcYFGs6d1kL0NGEd3jDGM/kEKHfAPTKajauGUXNqZ4TC3GWHIqI8OadxDUrCqa8yngVQP1A81rOw7t2mV++vxz/7h/8kNjSvWHH7+wbiwftOxkc/9EhsqEhfWFiEg+U7MTkZ7f7BePncea/2KOmpJog85/awzB6nMBubSiR14t06SYftKY5RU/akpubUYMpbtXLXT50xKqEmWBETajJJAD7zYaWTcBrB0LCALatsBi3C5S6Gh7TgFYI4xI/XJE9LecX81YetgaMOhD4yQjUFJOcIob8W/+rT/zxWRPfSnRvRNzAam51u3JpfjakrU7F/z87Yv3sPqFauI3/cnL4RFy9fig+9731x74mTokNxDWXoY4CMNq7pzoVyO4I5ZURn6kEO9HJeFRb3ZUFLurqXMp61nurorrSosx3RrLdOM0bW8N5cXm+ZaN5Dg22gldc7kVT5QkZKRi2VKq4ETBIYwUsoYAB3mSIHZdlhQlYAWjxIbg7W41c/80tx4eKMFpvp6FnviekbU9Fo1WKluxJTMtrkoUnPEhYHhP/N//rlePaZH8QPP/KBWFlfiZHRYZfSt+bumA9Pd4ginJkyI4P0Uz93uZdH2tJkeAnFfa7YiubqGnxg03hpCw7SEjMx6YpPfm7OEO/JlkPDQkylec6Hd9nDgli876ZxvFOYkSZ45O9cqz6MzYrNAgRsUYwr7WWjOVCPXzn92bh6aTpuzt6KhZXlWFmZj/vJk4OjzCxFsxQSOZdqMuU3Hnsszrx0Nh5553t5FuadmEd0fv211+L8xUsypFhgTLV8ICIXYFvLmv2WQXJ6sbJcaTjswD2zLKOTByx3b1KqxmVRR61GHZi2UY2lqHTupDRAPEeTLuVFThiXfrO1x7hl+iKoBBQQDxgYYBUkUteU0HNlxYMg6FKEBgfa0dm3Gf/5N34zbl6bjaXF+XjptYtx/vKFeOtbHoz20A7z64hPrckMkFN1/NbXH4s/lyH/+l9+j6yEw9TfxCjIrwW/t88G0yWMMpIlC7y9UAmlPKJzxKmiwEmGVwB5glvOsjGRHtKPcQzPzCWYKI4SiRqzWnN4RtgDAP1qFNZr1YIBYGHCOEJZTMEgPFCs8G0dWTIwpDHBsPrzFRhJWtFQ4wJFpRTi/c/Pfzf+1t/4ybg8fVFljnY7ndvKf39VBXQzmj3Ki1ICddakLIvM6y+/quNc/NSP/micPHpC/DOdNJQ/4c+nni+++rJlsJWJQFuR2YQoOJ4HLdpCin+bXUAKrZOoYWz1gw698pTetNEXJ4gW9wQKtgCPLS9R3FNvtODqcMaT5BvKG8iKt4HxRIpXmUUES3lEM9lK/vI4DjobrNoeoCVzcmRjsBG//Au/GANDQ/H0mafj1z/3xXjvu0/Fux8+FRMT43KEIkqzwgW9ZBKRuPDy+fjS174cf/PDPxKTk8ejqxWIVf8HZ581X9rj3/uz6CwvbfO1IXOMC6covXIBkXGlg5+9GggibFyI1pyJjnDhkKNLagOXg1s/nwXbcI5cLQCKIPKKIWRER6boO7eoC8PyDktWeXNSM7TlkjN0zoQMGfIXCnFdXCBBVeC1h1rxy//0MzHUbsX//t4fx+rcarzzXaeiZ3A49uzZLU4kflZr8lXL02fu+oym91fj7/3dvyNjfjCaqjVbvaoN27W47433+OHx5StXgg9RZAqxIt/JCOJNMCETBiLquEY9+rnhCZbuuNFfpoNibM8wRtSJnvmRNjk3McDhiZrp6qi3mq3TyQD7Y7RNF85Zi3Hc1WACYb0YMWlHDlM5Synaxgbf0UnwIhhPeFrDrfj0P/iFmLs9H8+++Odx49admJq5ou3qUPy7X/oXceT40Th/XnXj2npsanFC9j958qn48jcfi0/+zI/Fex56p1bMRowMDsadhXnT3RD7dnvACo72D8XV69NpOPFtMNMsG8oKgPBRyyfm2ecZ6aaz+BEsGZe8ZyDkI8acqbRcXOU40+G+oqV2mpWYIz8+7dpzDJu6DhByBcwYTWb05ZnoKat519/dSSNSNoCLIftH+uIffeLn4saN2zF7Yzqeevk1rS7L0RgdjZ/98Y+b4qAi7t573xTnXj0vUhvx0pmz8fhTT8ZP/8TfjgcffHssaWov3FmInTtHo0+7n8XF5VhTrq2x0iKYDL1jeDCuTl9DKpkRo5K60iysB9y3FE25CFXGQFadM9eiBWfKK6oA3VH+VC/skLqpnzOw1TjLt+pMMTQd3tJgPktCrJ6JV2EsuAQxsMugzCUcCccUr4bNtNlqRP+Okfjkx34qZrVFpPx56rkzsWOgFUcOHIxHTr07NuT5uYWlWJcjO1pE3nHfm+Jbv/N4nL96IX7+k5+KN97zBhlxyfz6lE9mZ+dV1PdpweqqxtxQTXo9xsbGYuralRjfuUuRveZt4eqaDC0Z0CHzWsqWhsyoJNqQvrxTweBIVwGVwTAV+qEWOCzEOIU+B5cG6ppJMmb9tJUWMsbC8kQZU4z79GoVhaYpdGFn+aRL92FIyihC391mzT76HhmCenDmxs1YWbgdf/bC89qtTMbJ48dlkOG4JQNPDA8LOhP9QK0dT/zR4/H73//j+Mcf+7gcMeEpzZTtb9djWkY9sn8izpy/GMqa8eqF1+PkocPx+tWp2DG+U1Ha0XlcKzx1MU5aFFW9JGhX0xw9/S0OCZpPxVAg+21ibm22VCT34EQijlDqEFyqjIPAzFlNJzYzIEaksAUiWeisa6YKdw2VT6x03snwEjycWb0hksY0TTUxUufErvE4cfR49ChSZhQ9f/j0c/HwW94Se/ft17Ysn3YrW8dzr7wSy6ur0V1ZicuvXojT/+FzcfLIsVhQ9M1oWq+sLEar3YyVtW5M7t0Rl69dV2QPx53ZhTi4f6+iteat5o6hEW8Edo6NxObIiKZOQwsVZVBKxedRRCWLBvqhR4k76tnUh+XEZpDudy1I6mem+qMSvdAXvTEqzcZttVqQMIFkSasMCSW1jNQ0MttOrsxAGJQ6aywYYuIGA7127ZmIk5MnYnl5OXo1PV95/fX40F/7QPS0iYj8aiGrI/t7P5TVsXJ7Ib7x+78XH/3IR+J973qYOaWCvRlLSgG1em+Mj/bH7O1ZwfbGWZVKQ4N9MaYq4PrMtejtH4wfvPBcHNq9Xzl5Robs0WJ2QWPX48VXzssoGUHIzTOCStCMVDuVlqYtSxYaEhQsaAZGXxmVwGOcp/+2A3bSqd5stE4TcTwAhQSeYbWDMXtbLM6jekg5JkWYArYkYPjkDmfbGX197RgaGNI++Xa0VOK8eOlyfPzDH44NKegvjgIoz0CTiMfTF7QgffuJ78Tf/5mfiFPveMhROCZjzcnArXordo4PxtrckrzfG5cvX4ue/t7Yr8i/cu1yHN97OJ56/vl44+TRmJu7pdW95adODW01683eGBsalFFnxLL6ggIGcNsOGJvP+hIo1Zj7Mn759nLqTHBBIucvYxgUKvV6s32aTwOTQPIhdzDsEkJnwrt8HOoHvWKKh1y06mBhwKCMg99VvlpZXfbXsOe0Yv/khz+iUie3ZpRg0HAxLHQi9LtPPhHPnjsbv0J5dPhYLGmFxiHLq2sWZmhkIG4qVw709sfMzevCb8Ub9hxUenghjhw6EWfOvRiHDuyJ3kbbAgwPDcfFaZVcO8Zj6vrVGBvdYX435dwSBORLdjhZ9sCG/jRkFuPYgCNtAJ53OhW+PwuyUbdhXRrBiDvsDJCfuGAcWz+jtUwRf1pYMUtPcpUPBZw3TDYFamrv/OMf/ahqQUWjaPtPB7CUJ10tFr/1u9+O27evxxc++y+jb3gkukoZw319cWt+Pga1z+5TBN6eX4iJwZE4M38jBuv9cWBib1yZej2Os/BcuRi9I4NxcHR3LM7fjJHRiXjuJS1ycsprly/F4QP7YqDNfn0jZm7NxaochI6pX0abXzp7TbC+qYXfGZfBMskRAPlhnetynVNb7KdZ0KBod0dGXT560xiG0z1jGBIkjFk+faQl84wuE3RDGB44tOOR979feW1YKUT4Gma3QapoVDnzq994TPl2IX72E5+QIG2t7oMpg2bKgHJlTcacuTUTg/0jsbQ0H/v3nYz9I8MxNXU59hzcF/My8ppkOzK+J85PXdD4kXjmhWfi0MGDWrQ6MaA0wS7q9vxt75LeeHTSzz+JeHTxZz1qIuGIzN0d+mf0cTDY22pbb+CsOmMgMq6r7FaweVVWy8+t01BZoPPoixUa0DSWp4JHcjyjFQGozdzlVpNB2oPKVZpefPKY/t70c9IW8Cq+v/Z735JSy/Gpj/2Yau2WFpnlWJqbE+V1Tz0lvZjRNrK3PSyKG6oZFRFr89oyXot9k4OxvHAnFlZX4p4jx+NPXng2Dh86GC+88nwcVO06MjwqNZRzR3bE6spyDA8MqMhvR+9QfzygGpbat0eLG9FVVuVUTHLKwP7sK/9s5fKZOQ7gjMGdazkElPW3UwefTmImBt0nZZSqdQExeyfJmikGr7lYT8OTT3N1pFWpQDuRe44pinbtzs2AQHEKAjS1//tPX/lKrCyvxDveer+jqKfWVIR1Y13GWVhdj6GhAU3faUWTdjnKcxjk4P4D8eTTT8tJE5rq6/GhH/6wxu7Et7W/f899D8SVmaux1qO6VtH58sVzcc/hw/5Elcd2733ooVhcWnIlcOjAIf+2Z3r6ug1D2sqFRjeSnfO6ZKGudQipo+W0l6FEUe9vS6u/RC842FD9zdN+FkiIp/kMQHItZQBGzp+N6FJj3tibUMYoH+RXmBZoVEU457n5udi7a8IC+JGc3n77q1+JersRD7z5ftO/MnND28MxTzHu1zqrMavacqDZrxw4K0fVYs+eA/Hd739fNevh6G+2Yn5pQ5E8H2dvdePoRH+sdlcVuRHHVBa9cvHVODY5GTO3b+N5ydpVQX8lTt5zTywvLmg7eyseuPdeXS/G1Rs3LCdphXUhAyTXDS8uKG5d1avLNCBRqKCpNAaeMWxWbytnAsQMB47BXN/yGSLIfDUmCTHOSDKlD6I95NYqNcB+eWWV/OHrmzLM7omdUe9EfOnrX4/h0cE4euwEZaD44VUWhluxf2IciWJxeVUG3YyFxXmZoSZn7Iqnnz8TRzWNRwfaiq47cUAR/9z5s3Hq5M54TYZdV5Qf3380zp57Pg4Jbvb2HPV69PYNSJZl6d4Tt1QFvOut74gpna8rKt/2l96ivhva3s5lgNhYaZQ0pHSh36t12sMG0zURmo0x3qsxpjlTMw2UaNT4tNwyMob1sw/U8qiNBE4vC1FaOpnSWDVhQPfN6Wvx+JNPxuTRg7Fn74Foi0OPknq7xfQRsDw5rSgZGBiRQI2YXZhzrbhzaCxen7oY+/bs1VTDMfNx7OBkPPmDp+PNJ++NazNz8ZYHxlXLDscPnns23nTvPXFHEVnXrmd+ccn5eXhY9al2YEzl81r5T73jbTF15arq06vx8H0Pxv/6/tMyJJFUJM/ciIIOFNGwVrxx1uEguktff09fs85FO/kgkRyaes9VjsSKofKJM8bFU/ktNgzVJ4OUz0YwrutNXXi6i8myImZFW8Rp7csfvP++aLSpA7W2DA7IYIsq7Eeis7Jk2H07J7SX740rMnxvX6+2i0Mxr3y5b9++2OisxcLyYuwb3xvfPfNcPHT/m1SX8hGvVv3uWKxszMWB/W+K66ope1SOIU+7UfM3ORTeWnC0Gmu7Siq7Mn0zfujdp+KV1y7Ef/zK12JtSZGrF7oyO4EhNnLDQuCgby5AaFXe+1ot7d7YrKTdsI2M2czSaKtoyumJQORLA4kgxiJGuaex4q2ud5xLaUxXojfTAn0Zzfm9zlrs3r3bSZ3k3lnfjF1a6edUS7ZEDkU2FeWvK1p2jQ6rYJdRtSXcJQMvLS8oV3dcW/7p88/G0SMHo6Zw3oiOVvLD8QffeyIa/UPRWZ2P3UPtuKMSimeebUULitzQVpSPJwb7+2N5bTU2kKfdH7uiEd96/HHpiT6pE0pSY1MaYQPrLN0Zz+8W5XTGDi6fgHH8Ai3jN1v82oIbPsUr+1TuqTPZJTCcxO09nbFn7ldzSlBO+Mk6pM1cV3IzEBTmOIan+fe/+T5XCozwqGF5rRNXr16N/sGh6NfU3KeFhqjEMXv37Nequ+w6dZ8ccfaVV+INxyZjWNN/Vbz37zsUf3rmmTgxuT/GVdAjww3t0a9evxWDYwNxcO9+Rf2aYeeVk/v7+uXEpbizsBKLKt5/7fNfdDorBkIPgodPHPx7SglPzbtePZ+lGUY3aEj5tzWG1dWU9pQzbV2I5ZMfAOgjhEu0wTDrz6SMefEWRiL63CdYHELiBo4IJWVQy1H0Tikv7pnQ6q7X7ZuzcfblVxR5y47yVm+vP/Pmq4hjw0Px+vQV1amjMdo7FM+/di5OHjka62vLsSJeu8Ym4tmXXoyJvTtjQgX9imZIX2Mzdo/vVhm1FtdFe01wO0dGVQKvavY04o5mQaikqask+dePfl66yJTSNR9g556dtYa+jL2MPA1adnSlB4PycKfLrzMqKL+0A6o+N+fWeJWnuC7RpmuiTf3OjRUTzJ/byrzPFRFcmNOPJ9m/UzbJERKWhw89VAZ6kcv4nmTh21LEHTl4OAaHhlRrLseJI0dibGDYtCbGd6kcmovRkRHl1t1+djk5eVRTkskVcsiq9uGjSg9NLWJDcXNmJl569YIWuz1xcPdO5WdtCLSq37h+Mx599HOxsLZixyM5M8z66o7nD1y5ypDRG8q7a0opaE1goSsHgYa+3BFgrlV1rnJm7jkxJFPZ1N3gkntWCDBOI296SmzlF8TCO8CkeTEkV3wCyHhZvExj0+IJX3Erp7GI0X/7jsoUncd3jEVnrcunEDEog16Q8Zjuw/3aSiqvHlWhf1UFeI+Y8WjvxRdelKFHY6h3UA5ajnGVTqsqzK9NXVVVoG2qdmNrWt0/829+LVa0MYCX7YZ+ajyj9SeV3FdGYgQ92O38xQfh6C/5dcOZx4j5EIg9u6Y5CjHobVRFhuZkKwPAJAUQgqYuLSGyuURSBwsVOZbazLlUY3zjDFinEo27QMYZitT8aCBTCzkWDy9pp7KgY2x4RN5vxo1b05rWoyrW2zEzOxMHtLpfvzmjaS1cKTChrSNPvV5Syti5Y8Qr96Iifo/ybFc5+dWLF7Vir8ZvfP4LcVtpBJmyyWi6QSckTeezFvCV79Qdm6A/xiwm9rqBwLpnvNiLeFXR3nZplFOScxpQb95GQcSbfL384EPGggQWYIrxBAVyNhDMubYhM9dsbECPA8FzWtqwlVDIkxELLKN5z8OIPlXSA4q4TmcjLt2Y9pduF1VSXZmejoYWtla712XLDu2gcMC5l8/7syC+GNGrvLZz1864dvlSfPbRX4/ZuYUt+kQSBkMeIgujsOjp0i1NhGIYUuPCwwIESzFk6gQU9kiMeqMqjSCWPzLKCOPe0ahXRmd6DgIom2TSSHjOX0GhRx2OYGCqAzopqHC5EIwFsGAYj29/lC/tq5zqdGKgtx0N1XKgEc1DAwMa1zZKDr330JH4L4/9ThzeMx613n5XxTt27NBQM545+1wcGB+PrnRgj/mLv/o575DgVb5klbLLkMhWBUfZgDhwdMEMdBpzoKWufi4huuicVJIeUQmEdK6ddrSIMETUq6YLYYCEEe8OZw7g6SPzEZE07nFCejqhgK6GRUsXCKoXwjkXiad/7SZKRAmRwNMcImFxeckrPSUIBO0UrdCkojktJo+881R88Rtf9dayT5UAKWR0uD9eOnchLk5djtH+wfi3//7RuE1utTxWyfzTfNu1IjISADTyeElR/gRBDXjuwffhTnRJ2KSOA7QDks0dSRgAC5dQzrCGoKY7eVBc7SUTymmtyPaXtRyReBni6t/kKy4yBGLVlAv4witYRIBOLva9e8L7gncu0gD3fc2myy0iFBiehzbF+z0PvF116RVXEYva3bzv4bfHf/vmf4+TqklDOCh34tixeP75c/ElRe6ydk3IlFphBZQnGlPetmciMjPd8xlrgc2pDQq654wSaG48ZOScrRkyxhCMdGtoAcpcZmiAWMFhyi392Ec3GWVEbE55jMUUtKBqRGmC5DmNDh5TSALIOfS1NH0xElbNKMjUgFDwgB6lGZGxpm1gR1tSptclFeXveuvb4oLyoLwRi0sr8Z5T71TZsx43ZlWYK0Ln5mbjf/zhHykatdBJ/hIY5sUMsLm41bv+0BHeQHCPUZDDqc5dBIZHDWeipmBgw2ezMWv+EgIWt7LyiA2qaxo5RBMBPMgmQZqJJBPY0xAA4oaRsHjTolXCgO8VXLUbD2ade3WkyZNKb7PlBQIlswTJH3vOLq9Fu1mPS9q7/5W3PRRTly86Ly7LoCf374kvfPnLsUvR+dvf/F1XFOCnnlWu51AHnODFk7AUCzmJWHRFh/xaJfKBJAmjZZlS3opoOkZ68vQrKQq3ociEiUNXFK14OauBiwipGBKmwdTlyEwoNQTVONtFn2EgWPAyNyFwUQBw2BfsNCSw+eMq+JikFsWmFwF/K07TvqfRiktXL8eptz2svDqvY8VFeV26f+f7z7BUW0kvdPhUb3aqiGWUQrORxmIUvZFLdz4je6WrZcb5LHy6zuIcCjKfyJO//c+jLL2gM84gVj4GFWhiqGEQACWXASul9aIxZZHCAjv8daXpy49bEZUpAc389pgEqJSBWyWT76AmH4gHJUvmKAF7GLZsBzHEqlflrhaVhfiDJ74Tx7SXf/XlV+P8ubNx5sUXNIb8wiWCkBKiUGeWuA+6FNlWRm3b4eiQPbqCjjVFJpwjKrol4KxzJZ+dIx3dpyZHt/h5KJcm5+jxHAG+AlKfN/0yVPEexoemLswcg4FGriUSoUO//VvhlAcpGTniqj6mFbUiZQsCQ5IVnM+O8Lw5aXHwRyOKEPhPHj8Wl2cX4+jOgZi6ei3mlQLq4k1zrWwqaRhHmGRCfvrZx3tzooPozIUXWHJp9XM+4bhMEwzTWMFuXZHGs8z9PAGzFfSq8Pv6BjZ5KABTLwY+UimI0mfD+B4sohAvw0DE1YlBwM9pxAEBnWWgVCbZETHFwygGXZgRkdkqOB8MMd3SoYhN2cIzTKKXJ3/r2hDA01iw8znh+VcUriDuIm1Zys1faABt9yEWAUXKQj/GPLnUMmpp6qBP4yU91sr/xZCcOpMbdRYCXuUBKdOUh8H41UT1gnzuivIa5lZKF7zsAMMnIwTwmGBc+DJm+BSWsVw9U/P80WlGOZ9Hw4ceIhiHEBFrClRmK47IhSxl0J9bx4scMy3HoI4cOL40HjESpdAGjf+7QTMN6NmQ3OdTL/DTecQoAwLiTzd2lLZknM2MX1NYYHU4GnVuaYVc6/D0CENnuUJj2mQ+SWPkTgHFYYZzqnrOeKIuHrkQAZ8Rmqt2blP5+cvK2qr5IpCfyggHWjTgU5HCwWLaUPAnIh3pHsuZ5ByqVp7qgG/6UGEMeo6qggcfprhoOapoyQ2ZoSGWuk9zwtcQ6qS/+vF+SkUO8YCIW0Ch5LPKREQhYoQRUoO/rMCdzjjCcGLIuH+qzLXwePHHPbBEKAYjz1pRwfIrYPAq0cWrcobw+T0jDVk9R6yYIHEYZ8urae2nUeRsHCVdRIcXD0Lo4x4a9KUTG4kLR8KLWli0XeIJOp/vZlrbghd9U7KDMhiEpB7ZJp/aoKQ8J+H5sRF+JdLIUcDCHiEyJYi5FgQbGzxeOmcUcMc7RmeKCl+S5oOUNJBOsaE36PkbHsLjH1H5t+iogIDCdzoQ/1pNe/ZO/mQaXBSHn1NACqf+IgNnzSZFucfV4JsOzYahPN3Vl6kKMdNx8CMqzV8HX+Epv0SBBosSBuaaAOCcEYzkgmlqNUdEI1Qs8zoF4YLcUYznUQRVP0l6W0ymEPkIbOEAi/F0Xaa0oXWdC1Y6L6uA7X0yLX+2VxyV9KCBA/JLYmkEdm4u59QYA5/al/FsWTMSGB4Xc+/2oAk/dNriSjqQUXVm4wJ96tPU3eCM6CAokBlIBgBkSPr7l1y62yoRBFS+rgwkxHgBTMLOFTa/5XC38WGWe1YY5RQjWsmx5ccGRBDRnl+nSWOV70Yy9YkCGh+g0bKu04VoygxOJchj42uMz2qQheexNOdZlNc1UYeyxlejUC8fitlBwHpccIZlsWW3xe9BJZuOsgDBPYPJaDlmOsKTwY0OTF9v7ybKAggR6iyixKaqoqYQISrIlWlC+mCTwsG21KJM5/JxBUy8G1HLlVsXhSDniho04EdfOoyVlzxeYCWLXkSWjVHhwROH+L9yCTZ3LGmQDJnUy7PMjWgVDNGqO+iRLm2PiiYNw/sLZ9zwZp4ZUPwwy3pLTvqsvN56Wq1e9aXV3aUL8gmresklGFEXoHsaQR2BkwrSVKEvGBTAAbnrEYT7cUCu4I4qHV7RhV9W2lxBcXQ6ELp+CYmXczh75A5fKEiDIGsaAWjRFFpOUKvmJ01rAqgksWltWHha1gwC9KXPmxLgJAgiMJYyoyI2SqcwBp3sSxrwyBWBDh/kMIyRSJiNe9eHFYp/eF9FH+LBeHsxQBSETA2g4wgTrWJIGrsHT3cBGVrdmcg5MJJOXpA0JgAMSeMXFCl60kIZMJwyLGPy5Y2oNozgKR/zl2jVsK5R2wcUxYvZidMwajGQAEURDN4tlBDQGxzGhYGddFgWcg9KFwRYFlIWVZeJnIr3KTpspIqNx3WPQZhqYJGfvJpDUf1EoiU3Bwmj68xH7N0V4cL3h3Z2JPnW2ps+TkDQlA8jpmFRGCOX6EjeDKQ8PuvWOBhKcFxjjEpyy4ZefF07+SRtsKDJ7AHIjhKcKYgW8qEjHJJSvtcoI+gq02/r6bIYcZ8KInRG6bKiI+uwJIHACEgqYMcBLZT04mE6aWj6uCdK4JHfxiUWMRw4+UEWn5uXR3c0R4logOuUo1IJzhkRrNR8rEaZxSJTxrIGdAAI19Na9zaOKJX86ZOVwFi52HGm8X0AngcQQlmlFPmL07lLuzEj4NHT6u13zJmQPQipFIJ8xqqI0CalPzwIHAQhZ2WNYalSOCnNw4rMt0rkzkUMIIho27v0mMLd2MZHFnr42eEq/95bHciFAfPTT11XDoWHo043pKBiMMagxzNQtpY4tDQkxwHInumKtUCOYWGpHIScrgxEyAsWQlkwGbZaXKFScjx0aljfq6yIU7qwcCAODcK5QIidhEY8Vk9Zv5q65KPc36boeFhw9MFMXR0JyDfbBFxNbwRwZrSgVkgMoQEtkDyuy7Xq/6Sn6ml63lGAxQZzgu+cijgopDErBi21ZW3ibRz6q750HQdLBmeVYXxDw4GTxjYzv6VO5FwMTFhliqKlIU2Lv/z/mbqXhdrah/PNMYzrbw+rG2ArSROejYVgGiVqHQmCyZIhw11QNiSKUhvyqWJGN0pDL6MWp6TQKE+UFSHLmQaQjCv6nrbKsRjL09fnIn5xFEbjGho4SjCFLkIJuEQT8mHMvDeAhnGXbrgvY8nB+Lo1HpAEBGPYx0EBkIkKnBoSY/Ty4ZT62M8yjpC5gyHKtvfG/vKCQgQwP/8zrHKY4C0s2FVUoDxKlcIcGo4MRDBe0s/o2HYkzbskVxFyCoLrZaXFG140F/3q72vl7gmHup8DA+hFqkIvnXRmhEhOXRwkaslRMmkYySyDeGT5xExgiOeZBBO0c5YwU/1wOL2BgjCpmBspIwtF4E2fuUgsDMRtmSZWCsJgCbArvzVrKTywTDUbQcIjJFMzcxG+hYaJWwaELD+fSX7J02UJxsagNj7wGIMpijyib9/wAIUdVGImZVq5Kr04NhecVLjSyfeiTU2t/uJUmrkIwHwlA07Yjky98QUlbvBt/hHeig4UkiHxKAzwjJXyuxjACIIyTOajFAbj1VRmZLEO3cRxbrW0gtW1ULnR4U5ubADydNlzV9ZJ+jY8jjOiGv30QA+SevMQeZQTxk38Enmcsw/JpIVguAYXsg4HrnXG4Z5hwEBbGEme6+SFnUxCTXoLSc7Jf+ThLh2EcO5TMVuayOi6qu5EkChLUyE8pcXWqKcdGBlFuhLs1m8NLVia2bZQI+KQxZFJXtSF6blUEa1kuoVj04gm6YVyJcfs4oqWIgcYdZinWgaF9JPVgMO5OA4gqgRKP5qfMRgb3YWvfr5xR0unCN8zMXkB11b9nf9aXJSZKn4io0EmIvFojmoOaV8JVH3eXYhYCpRg3iMrrCCGd/2xATBmhmGgQ4SkLfOenAVv8jN4peVVoZ8RU8ThXXeC97i3t4LZSgmpPM5Fji14a4ApNcZzS9KQFjVHqkb81XJfIRdRmtPXzwbu6kvtsrHoss7glLul///t/7lF/B+x2NXW2exEwgAAAABJRU5ErkJggg==;" vertex="1" parent="1">
          <mxGeometry x="1317" y="87" width="83" height="83" as="geometry" />
        </mxCell>
        <mxCell id="j9suDuCbf65Sm_-P19-l-207" value="&lt;b&gt;Stage one&lt;/b&gt;" style="text;html=1;align=center;verticalAlign=middle;whiteSpace=wrap;rounded=0;" vertex="1" parent="1">
          <mxGeometry x="-15" y="-127.99999999999999" width="60" height="30" as="geometry" />
        </mxCell>
        <mxCell id="j9suDuCbf65Sm_-P19-l-212" value="" style="endArrow=classic;html=1;rounded=0;exitX=1.044;exitY=0.307;exitDx=0;exitDy=0;exitPerimeter=0;strokeColor=#67AB9F;strokeWidth=2;" edge="1" parent="1">
          <mxGeometry width="50" height="50" relative="1" as="geometry">
            <mxPoint x="-66.05" y="-66.1" as="sourcePoint" />
            <mxPoint x="-26" y="-66" as="targetPoint" />
          </mxGeometry>
        </mxCell>
        <mxCell id="j9suDuCbf65Sm_-P19-l-213" value="" style="endArrow=classic;html=1;rounded=0;exitX=1.044;exitY=0.307;exitDx=0;exitDy=0;exitPerimeter=0;strokeColor=#D79B00;strokeWidth=2;" edge="1" parent="1">
          <mxGeometry width="50" height="50" relative="1" as="geometry">
            <mxPoint x="-66" y="-114" as="sourcePoint" />
            <mxPoint x="-25.950000000000003" y="-114" as="targetPoint" />
          </mxGeometry>
        </mxCell>
        <mxCell id="j9suDuCbf65Sm_-P19-l-214" value="&lt;b&gt;Stage two&lt;/b&gt;" style="text;html=1;align=center;verticalAlign=middle;whiteSpace=wrap;rounded=0;" vertex="1" parent="1">
          <mxGeometry x="-11" y="-81.99999999999999" width="60" height="30" as="geometry" />
        </mxCell>
        <mxCell id="j9suDuCbf65Sm_-P19-l-218" value="" style="image;aspect=fixed;perimeter=ellipsePerimeter;html=1;align=center;shadow=0;dashed=0;spacingTop=3;image=img/lib/active_directory/secure.svg;" vertex="1" parent="1">
          <mxGeometry x="-53" y="-35.2" width="18" height="28.12" as="geometry" />
        </mxCell>
        <mxCell id="j9suDuCbf65Sm_-P19-l-220" value="&lt;b&gt;Freeze(Stage two)&lt;/b&gt;" style="text;html=1;align=center;verticalAlign=middle;whiteSpace=wrap;rounded=0;" vertex="1" parent="1">
          <mxGeometry x="-15" y="-35.2" width="119" height="30" as="geometry" />
        </mxCell>
        <mxCell id="j9suDuCbf65Sm_-P19-l-102" value="" style="rhombus;whiteSpace=wrap;html=1;fillColor=#B9E0A5;strokeColor=#97D077;" vertex="1" parent="1">
          <mxGeometry x="136.9999999999999" y="-117.00000000000006" width="12" height="12" as="geometry" />
        </mxCell>
        <mxCell id="j9suDuCbf65Sm_-P19-l-103" value="" style="triangle;whiteSpace=wrap;html=1;direction=north;fillColor=#B9E0A5;strokeColor=#97D077;" vertex="1" parent="1">
          <mxGeometry x="137.9999999999999" y="-71.00000000000006" width="12" height="12" as="geometry" />
        </mxCell>
        <mxCell id="j9suDuCbf65Sm_-P19-l-104" value="" style="triangle;whiteSpace=wrap;html=1;direction=north;fillColor=#FF0B0B;strokeColor=#EA6B66;" vertex="1" parent="1">
          <mxGeometry x="137.9999999999999" y="-26.000000000000057" width="12" height="12" as="geometry" />
        </mxCell>
        <mxCell id="j9suDuCbf65Sm_-P19-l-105" value="&lt;b&gt;normal feature(train)&lt;/b&gt;" style="text;html=1;align=center;verticalAlign=middle;whiteSpace=wrap;rounded=0;" vertex="1" parent="1">
          <mxGeometry x="165.9999999999999" y="-126.00000000000006" width="129" height="30" as="geometry" />
        </mxCell>
        <mxCell id="j9suDuCbf65Sm_-P19-l-106" value="&lt;b&gt;normal feature(test)&lt;/b&gt;" style="text;html=1;align=center;verticalAlign=middle;whiteSpace=wrap;rounded=0;" vertex="1" parent="1">
          <mxGeometry x="165.9999999999999" y="-78.99000000000005" width="129" height="30" as="geometry" />
        </mxCell>
        <mxCell id="j9suDuCbf65Sm_-P19-l-107" value="&lt;b&gt;abnormal feature(test)&lt;/b&gt;" style="text;html=1;align=center;verticalAlign=middle;whiteSpace=wrap;rounded=0;" vertex="1" parent="1">
          <mxGeometry x="171.81999999999988" y="-32.00000000000006" width="129" height="30" as="geometry" />
        </mxCell>
        <mxCell id="j9suDuCbf65Sm_-P19-l-226" value="&lt;font style=&quot;font-size: 14px;&quot;&gt;&lt;b&gt;D&lt;/b&gt;&lt;/font&gt;" style="ellipse;whiteSpace=wrap;html=1;aspect=fixed;strokeWidth=2;" vertex="1" parent="1">
          <mxGeometry x="-61" y="14" width="32" height="32" as="geometry" />
        </mxCell>
        <mxCell id="j9suDuCbf65Sm_-P19-l-228" value="&lt;b&gt;Euclidean distance and sigmoid&lt;/b&gt;" style="text;html=1;align=center;verticalAlign=middle;whiteSpace=wrap;rounded=0;" vertex="1" parent="1">
          <mxGeometry x="-11" y="14" width="119" height="30" as="geometry" />
        </mxCell>
        <mxCell id="j9suDuCbf65Sm_-P19-l-229" value="&lt;font&gt;$$U-Net(\epsilon)$$&lt;/font&gt;" style="text;html=1;align=center;verticalAlign=middle;whiteSpace=wrap;rounded=0;" vertex="1" parent="1">
          <mxGeometry x="974" y="-25" width="60" height="30" as="geometry" />
        </mxCell>
        <mxCell id="j9suDuCbf65Sm_-P19-l-230" value="" style="shape=curlyBracket;whiteSpace=wrap;html=1;rounded=1;labelPosition=left;verticalLabelPosition=middle;align=right;verticalAlign=middle;direction=south;strokeWidth=2;" vertex="1" parent="1">
          <mxGeometry x="369.5" y="-560" width="1056.5" height="20" as="geometry" />
        </mxCell>
        <mxCell id="j9suDuCbf65Sm_-P19-l-231" value="&lt;b&gt;&lt;font style=&quot;font-size: 16px;&quot;&gt;&lt;i style=&quot;&quot;&gt;Stage two&lt;/i&gt;&lt;/font&gt;&lt;/b&gt;" style="text;html=1;align=center;verticalAlign=middle;whiteSpace=wrap;rounded=0;" vertex="1" parent="1">
          <mxGeometry x="834.22" y="-595" width="119" height="30" as="geometry" />
        </mxCell>
        <mxCell id="j9suDuCbf65Sm_-P19-l-99" value="$$\mathrm{T&#39;}$$" style="text;whiteSpace=wrap;align=center;labelBorderColor=none;textShadow=0;labelBackgroundColor=none;fontSize=15;" vertex="1" parent="1">
          <mxGeometry x="644" y="-242.88" width="127" height="52" as="geometry" />
        </mxCell>
        <mxCell id="j9suDuCbf65Sm_-P19-l-109" value="" style="ellipse;whiteSpace=wrap;html=1;aspect=fixed;fillColor=#ffe6cc;strokeColor=default;dashed=1;" vertex="1" parent="1">
          <mxGeometry x="923" y="-502" width="129" height="129" as="geometry" />
        </mxCell>
        <mxCell id="j9suDuCbf65Sm_-P19-l-110" value="" style="ellipse;whiteSpace=wrap;html=1;aspect=fixed;fillColor=#ffe6cc;strokeColor=default;dashed=1;" vertex="1" parent="1">
          <mxGeometry x="809.25" y="-434" width="96" height="96" as="geometry" />
        </mxCell>
        <mxCell id="j9suDuCbf65Sm_-P19-l-111" value="" style="triangle;whiteSpace=wrap;html=1;direction=north;fillColor=#B9E0A5;strokeColor=#97D077;" vertex="1" parent="1">
          <mxGeometry x="910" y="-385" width="12" height="12" as="geometry" />
        </mxCell>
        <mxCell id="j9suDuCbf65Sm_-P19-l-112" value="" style="triangle;whiteSpace=wrap;html=1;direction=north;fillColor=#B9E0A5;strokeColor=#97D077;" vertex="1" parent="1">
          <mxGeometry x="844.5" y="-398" width="12" height="12" as="geometry" />
        </mxCell>
        <mxCell id="j9suDuCbf65Sm_-P19-l-113" value="" style="rhombus;whiteSpace=wrap;html=1;fillColor=#B9E0A5;strokeColor=#97D077;" vertex="1" parent="1">
          <mxGeometry x="892.5" y="-388" width="12" height="12" as="geometry" />
        </mxCell>
        <mxCell id="j9suDuCbf65Sm_-P19-l-114" value="" style="rhombus;whiteSpace=wrap;html=1;fillColor=#B9E0A5;strokeColor=#97D077;" vertex="1" parent="1">
          <mxGeometry x="816" y="-413" width="12" height="12" as="geometry" />
        </mxCell>
        <mxCell id="j9suDuCbf65Sm_-P19-l-115" value="" style="rhombus;whiteSpace=wrap;html=1;fillColor=#B9E0A5;strokeColor=#97D077;" vertex="1" parent="1">
          <mxGeometry x="954" y="-437" width="12" height="12" as="geometry" />
        </mxCell>
        <mxCell id="j9suDuCbf65Sm_-P19-l-116" value="" style="rhombus;whiteSpace=wrap;html=1;fillColor=#B9E0A5;strokeColor=#97D077;" vertex="1" parent="1">
          <mxGeometry x="869.5" y="-401" width="12" height="12" as="geometry" />
        </mxCell>
        <mxCell id="j9suDuCbf65Sm_-P19-l-117" value="" style="rhombus;whiteSpace=wrap;html=1;fillColor=#B9E0A5;strokeColor=#97D077;" vertex="1" parent="1">
          <mxGeometry x="942" y="-406" width="12" height="12" as="geometry" />
        </mxCell>
        <mxCell id="j9suDuCbf65Sm_-P19-l-118" value="" style="rhombus;whiteSpace=wrap;html=1;fillColor=#B9E0A5;strokeColor=#97D077;" vertex="1" parent="1">
          <mxGeometry x="863" y="-449" width="12" height="12" as="geometry" />
        </mxCell>
        <mxCell id="j9suDuCbf65Sm_-P19-l-119" value="" style="rhombus;whiteSpace=wrap;html=1;fillColor=#B9E0A5;strokeColor=#97D077;" vertex="1" parent="1">
          <mxGeometry x="885" y="-467" width="12" height="12" as="geometry" />
        </mxCell>
        <mxCell id="j9suDuCbf65Sm_-P19-l-120" value="" style="rhombus;whiteSpace=wrap;html=1;fillColor=#B9E0A5;strokeColor=#97D077;" vertex="1" parent="1">
          <mxGeometry x="928" y="-443.5" width="12" height="12" as="geometry" />
        </mxCell>
        <mxCell id="j9suDuCbf65Sm_-P19-l-121" value="" style="rounded=0;whiteSpace=wrap;html=1;direction=west;gradientColor=#B40A0A;gradientDirection=west;" vertex="1" parent="1">
          <mxGeometry x="819" y="-248" width="199.5" height="18" as="geometry" />
        </mxCell>
        <mxCell id="j9suDuCbf65Sm_-P19-l-122" value="" style="group" vertex="1" connectable="0" parent="1">
          <mxGeometry x="818.5" y="-286" width="200" height="20" as="geometry" />
        </mxCell>
        <mxCell id="j9suDuCbf65Sm_-P19-l-123" value="1" style="rounded=0;whiteSpace=wrap;html=1;" vertex="1" parent="j9suDuCbf65Sm_-P19-l-122">
          <mxGeometry width="20" height="20" as="geometry" />
        </mxCell>
        <mxCell id="j9suDuCbf65Sm_-P19-l-124" value="2" style="rounded=0;whiteSpace=wrap;html=1;" vertex="1" parent="j9suDuCbf65Sm_-P19-l-122">
          <mxGeometry x="20" width="20" height="20" as="geometry" />
        </mxCell>
        <mxCell id="j9suDuCbf65Sm_-P19-l-125" value="5" style="rounded=0;whiteSpace=wrap;html=1;" vertex="1" parent="j9suDuCbf65Sm_-P19-l-122">
          <mxGeometry x="80" width="20" height="20" as="geometry" />
        </mxCell>
        <mxCell id="j9suDuCbf65Sm_-P19-l-126" value="4" style="rounded=0;whiteSpace=wrap;html=1;" vertex="1" parent="j9suDuCbf65Sm_-P19-l-122">
          <mxGeometry x="60" width="20" height="20" as="geometry" />
        </mxCell>
        <mxCell id="j9suDuCbf65Sm_-P19-l-127" value="3" style="rounded=0;whiteSpace=wrap;html=1;" vertex="1" parent="j9suDuCbf65Sm_-P19-l-122">
          <mxGeometry x="40" width="20" height="20" as="geometry" />
        </mxCell>
        <mxCell id="j9suDuCbf65Sm_-P19-l-128" value="8" style="rounded=0;whiteSpace=wrap;html=1;" vertex="1" parent="j9suDuCbf65Sm_-P19-l-122">
          <mxGeometry x="140" width="20" height="20" as="geometry" />
        </mxCell>
        <mxCell id="j9suDuCbf65Sm_-P19-l-129" value="7" style="rounded=0;whiteSpace=wrap;html=1;" vertex="1" parent="j9suDuCbf65Sm_-P19-l-122">
          <mxGeometry x="120" width="20" height="20" as="geometry" />
        </mxCell>
        <mxCell id="j9suDuCbf65Sm_-P19-l-130" value="6" style="rounded=0;whiteSpace=wrap;html=1;" vertex="1" parent="j9suDuCbf65Sm_-P19-l-122">
          <mxGeometry x="100" width="20" height="20" as="geometry" />
        </mxCell>
        <mxCell id="j9suDuCbf65Sm_-P19-l-131" value="9" style="rounded=0;whiteSpace=wrap;html=1;" vertex="1" parent="j9suDuCbf65Sm_-P19-l-122">
          <mxGeometry x="160" width="20" height="20" as="geometry" />
        </mxCell>
        <mxCell id="j9suDuCbf65Sm_-P19-l-132" value="10" style="rounded=0;whiteSpace=wrap;html=1;" vertex="1" parent="j9suDuCbf65Sm_-P19-l-122">
          <mxGeometry x="180" width="20" height="20" as="geometry" />
        </mxCell>
        <mxCell id="j9suDuCbf65Sm_-P19-l-133" value="Bins" style="text;html=1;align=center;verticalAlign=middle;whiteSpace=wrap;rounded=0;fontFamily=Times New Roman;fontStyle=1" vertex="1" parent="1">
          <mxGeometry x="1036" y="-291" width="60" height="30" as="geometry" />
        </mxCell>
        <mxCell id="j9suDuCbf65Sm_-P19-l-134" value="Anomaly Score" style="text;html=1;align=center;verticalAlign=middle;whiteSpace=wrap;rounded=0;fontFamily=Times New Roman;fontStyle=1" vertex="1" parent="1">
          <mxGeometry x="1040" y="-251" width="60" height="30" as="geometry" />
        </mxCell>
        <mxCell id="j9suDuCbf65Sm_-P19-l-136" value="" style="endArrow=classic;html=1;rounded=0;exitX=0.68;exitY=0.954;exitDx=0;exitDy=0;exitPerimeter=0;strokeColor=#67AB9F;strokeWidth=2;" edge="1" parent="1" source="j9suDuCbf65Sm_-P19-l-110">
          <mxGeometry width="50" height="50" relative="1" as="geometry">
            <mxPoint x="965.5" y="-334" as="sourcePoint" />
            <mxPoint x="878" y="-287" as="targetPoint" />
          </mxGeometry>
        </mxCell>
        <mxCell id="j9suDuCbf65Sm_-P19-l-137" value="" style="endArrow=classic;html=1;rounded=0;exitX=0.428;exitY=0.997;exitDx=0;exitDy=0;exitPerimeter=0;entryX=1;entryY=0;entryDx=0;entryDy=0;strokeWidth=2;strokeColor=#67AB9F;" edge="1" parent="1" source="j9suDuCbf65Sm_-P19-l-109" target="j9suDuCbf65Sm_-P19-l-128">
          <mxGeometry width="50" height="50" relative="1" as="geometry">
            <mxPoint x="962.5" y="-350" as="sourcePoint" />
            <mxPoint x="960.5" y="-289" as="targetPoint" />
          </mxGeometry>
        </mxCell>
        <mxCell id="j9suDuCbf65Sm_-P19-l-138" value="" style="rhombus;whiteSpace=wrap;html=1;fillColor=#B9E0A5;strokeColor=#97D077;" vertex="1" parent="1">
          <mxGeometry x="958" y="-392" width="12" height="12" as="geometry" />
        </mxCell>
        <mxCell id="j9suDuCbf65Sm_-P19-l-139" value="" style="rhombus;whiteSpace=wrap;html=1;fillColor=#B9E0A5;strokeColor=#97D077;" vertex="1" parent="1">
          <mxGeometry x="942" y="-461" width="12" height="12" as="geometry" />
        </mxCell>
        <mxCell id="j9suDuCbf65Sm_-P19-l-140" value="" style="rhombus;whiteSpace=wrap;html=1;fillColor=#B9E0A5;strokeColor=#97D077;" vertex="1" parent="1">
          <mxGeometry x="846.5" y="-360" width="12" height="12" as="geometry" />
        </mxCell>
        <mxCell id="j9suDuCbf65Sm_-P19-l-141" value="" style="rhombus;whiteSpace=wrap;html=1;fillColor=#B9E0A5;strokeColor=#97D077;" vertex="1" parent="1">
          <mxGeometry x="901.75" y="-420" width="12" height="12" as="geometry" />
        </mxCell>
        <mxCell id="j9suDuCbf65Sm_-P19-l-142" value="" style="triangle;whiteSpace=wrap;html=1;direction=north;fillColor=#FF0B0B;strokeColor=#EA6B66;" vertex="1" parent="1">
          <mxGeometry x="1017.27" y="-458" width="12" height="12" as="geometry" />
        </mxCell>
        <mxCell id="j9suDuCbf65Sm_-P19-l-143" value="" style="rhombus;whiteSpace=wrap;html=1;fillColor=#B9E0A5;strokeColor=#97D077;" vertex="1" parent="1">
          <mxGeometry x="881.5" y="-449" width="12" height="12" as="geometry" />
        </mxCell>
        <mxCell id="j9suDuCbf65Sm_-P19-l-144" value="" style="rhombus;whiteSpace=wrap;html=1;fillColor=#B9E0A5;strokeColor=#97D077;" vertex="1" parent="1">
          <mxGeometry x="824" y="-385" width="12" height="12" as="geometry" />
        </mxCell>
        <mxCell id="j9suDuCbf65Sm_-P19-l-145" value="" style="rhombus;whiteSpace=wrap;html=1;fillColor=#B9E0A5;strokeColor=#97D077;" vertex="1" parent="1">
          <mxGeometry x="932" y="-376" width="12" height="12" as="geometry" />
        </mxCell>
        <mxCell id="j9suDuCbf65Sm_-P19-l-146" value="" style="rhombus;whiteSpace=wrap;html=1;fillColor=#B9E0A5;strokeColor=#97D077;" vertex="1" parent="1">
          <mxGeometry x="905.25" y="-357.5" width="12" height="12" as="geometry" />
        </mxCell>
        <mxCell id="j9suDuCbf65Sm_-P19-l-147" value="&lt;span style=&quot;font-family: &amp;quot;Times New Roman&amp;quot;; font-size: 18px; font-weight: 400; text-wrap-mode: wrap;&quot;&gt;KNN&lt;/span&gt;" style="text;strokeColor=#d6b656;fillColor=#fff2cc;html=1;fontSize=24;fontStyle=1;verticalAlign=middle;align=center;" vertex="1" parent="1">
          <mxGeometry x="1069.7900000000002" y="-442" width="78" height="29" as="geometry" />
        </mxCell>
      </root>
    </mxGraphModel>
  </diagram>
</mxfile>
